<svg width="350" height="506" viewBox="0 0 350 506" fill="none" xmlns="http://www.w3.org/2000/svg">
<g opacity="0.2">
<path opacity="0.0909" d="M112.885 362.817L126.479 355.226C127.025 354.912 152.542 340.987 153.022 341.268L161.786 336.969C165.739 334.687 171.544 333.926 176.571 333.926C180.937 333.926 185.617 335.298 188.743 337.101L250.064 372.028L263.145 379.487L337.547 421.872C339.945 423.261 342.178 425.395 343.319 427.495C344.228 429.165 344.791 430.968 344.84 432.87C344.989 437.781 341.963 442.445 336.522 445.587L322.928 453.178C322.382 453.492 296.865 467.417 296.385 467.135L287.62 471.435C283.668 473.717 277.863 474.478 272.836 474.478C268.47 474.478 263.79 473.106 260.664 471.303L199.343 436.376L186.262 428.917L111.86 386.532C109.462 385.142 107.229 383.009 106.088 380.909C105.179 379.239 104.616 377.436 104.567 375.551C104.418 370.623 107.444 365.959 112.885 362.817Z" fill="black"/>
<path opacity="0.1818" d="M114.241 363.908L127.471 356.598C128.579 355.953 152.459 343.401 153.419 343.947L161.919 340.441C165.474 338.391 171.659 338.258 176.174 338.258C180.11 338.258 185.088 339.945 187.916 341.566L247.434 375.501L260.135 382.744L332.354 423.923C334.521 425.163 336.985 427.412 338.06 429.281C338.986 430.885 339.614 432.572 339.73 434.391C340.011 439.104 337.15 443.668 331.792 446.744L318.562 454.054C317.454 454.699 293.574 467.251 292.615 466.705L284.115 470.211C280.559 472.262 274.374 472.394 269.859 472.394C265.923 472.394 260.945 470.707 258.117 469.087L198.599 435.152L185.898 427.908L113.679 386.73C111.512 385.489 109.048 383.24 107.973 381.372C107.047 379.767 106.419 378.081 106.303 376.261C106.022 371.548 108.883 366.984 114.241 363.908Z" fill="black"/>
<path opacity="0.2727" d="M115.597 364.983L128.463 357.938C130.117 356.979 152.377 345.767 153.815 346.593L162.068 343.865C165.226 342.046 171.775 342.525 175.794 342.525C179.283 342.525 184.592 344.526 187.089 345.965L244.805 378.908L257.109 385.936L327.145 425.907C329.064 427.015 331.776 429.347 332.768 430.984C333.71 432.522 334.405 434.11 334.57 435.83C335 440.345 332.288 444.793 327.029 447.82L314.163 454.865C312.509 455.824 290.25 467.036 288.811 466.209L280.559 468.938C277.4 470.757 270.851 470.277 266.833 470.277C263.343 470.277 258.035 468.276 255.538 466.838L197.822 433.895L185.518 426.867L115.481 386.895C113.563 385.787 110.851 383.456 109.859 381.818C108.916 380.28 108.222 378.693 108.056 376.973C107.626 372.458 110.338 368.009 115.597 364.983Z" fill="black"/>
<path opacity="0.3636" d="M116.953 366.058L129.456 359.294C131.672 358.021 152.294 348.164 154.212 349.272L162.2 347.337C164.962 345.733 171.891 346.858 175.413 346.858C178.473 346.858 184.079 349.156 186.279 350.43L242.208 382.38L254.132 389.194L321.985 427.958C323.672 428.933 326.632 431.348 327.525 432.77C328.468 434.259 329.245 435.73 329.477 437.368C330.056 441.684 327.492 446.017 322.333 449.01L309.83 455.774C307.614 457.047 286.992 466.904 285.074 465.796L277.086 467.73C274.324 469.335 267.395 468.21 263.873 468.21C260.813 468.21 255.207 465.911 253.007 464.638L197.077 432.687L185.154 425.874L117.301 387.11C115.614 386.134 112.653 383.72 111.744 382.298C110.801 380.809 110.024 379.337 109.793 377.7C109.23 373.367 111.794 369.035 116.953 366.058Z" fill="black"/>
<path opacity="0.4545" d="M118.309 367.133L130.431 360.634C133.193 359.03 152.195 350.529 154.593 351.919L162.316 350.761C164.681 349.388 171.974 351.141 175 351.141C177.629 351.141 183.55 353.754 185.419 354.846L239.546 385.804L251.089 392.403L316.76 429.959C318.198 430.786 321.423 433.3 322.234 434.49C323.193 435.913 324.053 437.269 324.317 438.823C325.028 442.941 322.63 447.175 317.553 450.102L305.431 456.601C302.67 458.205 283.668 466.706 281.27 465.316L273.547 466.474C271.182 467.847 263.889 466.094 260.863 466.094C258.233 466.094 252.313 463.481 250.444 462.389L196.317 431.431L184.774 424.833L119.103 387.276C117.664 386.449 114.44 383.935 113.629 382.745C112.67 381.322 111.81 379.966 111.546 378.412C110.834 374.277 113.249 370.06 118.309 367.133Z" fill="black"/>
<path opacity="0.5455" d="M119.665 368.208L131.424 361.99C134.748 360.071 152.112 352.927 154.99 354.581L162.448 354.217C164.433 353.076 172.089 355.441 174.603 355.441C176.786 355.441 183.021 358.368 184.592 359.278L236.916 389.244L248.079 395.627L311.55 431.993C312.758 432.688 316.247 435.284 316.941 436.26C317.917 437.632 318.843 438.873 319.174 440.344C320.034 444.264 317.785 448.382 312.807 451.259L301.049 457.477C297.725 459.396 280.36 466.54 277.483 464.886L270.025 465.25C268.04 466.391 260.383 464.026 257.869 464.026C255.687 464.026 249.452 461.099 247.881 460.19L195.556 430.224L184.393 423.84L120.922 387.474C119.715 386.779 116.226 384.183 115.531 383.207C114.555 381.835 113.629 380.594 113.299 379.123C112.439 375.203 114.704 371.085 119.665 368.208Z" fill="black"/>
<path opacity="0.6364" d="M121.021 369.3L132.416 363.346C136.286 361.114 152.029 355.309 155.386 357.244L162.58 357.657C164.168 356.748 172.189 359.741 174.206 359.741C175.959 359.741 182.508 362.982 183.765 363.71L234.287 392.684L245.053 398.869L306.341 434.028C307.3 434.59 311.087 437.252 311.666 438.013C312.675 439.336 313.667 440.444 314.031 441.833C315.04 445.554 312.923 449.556 308.061 452.384L296.666 458.338C292.797 460.57 277.053 466.375 273.696 464.44L266.502 464.027C264.914 464.936 256.894 461.943 254.876 461.943C253.123 461.943 246.574 458.701 245.317 457.974L194.795 429L184.029 422.815L122.741 387.656C121.782 387.094 117.995 384.432 117.416 383.671C116.408 382.348 115.415 381.24 115.051 379.851C114.043 376.113 116.143 372.111 121.021 369.3Z" fill="black"/>
<path opacity="0.7273" d="M122.378 370.375L133.408 364.702C137.84 362.139 151.947 357.707 155.767 359.923L162.713 361.13C163.903 360.452 172.304 364.057 173.809 364.057C175.116 364.057 181.979 367.613 182.921 368.159L231.641 396.14L242.026 402.11L301.132 436.062C301.859 436.475 306.043 439.138 306.374 439.783C307.631 440.841 308.458 442.048 308.888 443.338C310.045 446.861 308.077 450.763 303.298 453.525L292.267 459.198C287.835 461.761 273.729 466.193 269.909 463.977L262.963 462.77C261.772 463.448 253.371 459.843 251.866 459.843C250.56 459.843 243.697 456.287 242.754 455.741L194.035 427.743L183.649 421.773L124.544 387.822C123.816 387.408 119.632 384.746 119.302 384.101C118.045 383.042 117.218 381.835 116.788 380.545C115.63 377.023 117.598 373.136 122.378 370.375Z" fill="black"/>
<path opacity="0.8182" d="M123.734 371.449L134.401 366.041C139.378 363.164 151.848 360.071 156.164 362.568L162.845 364.553C163.639 364.09 172.404 368.34 173.413 368.34C174.289 368.34 181.466 372.21 182.095 372.574L229.012 399.563L239.017 405.318L295.939 438.062C296.419 438.343 300.884 441.072 301.099 441.502C302.389 442.478 303.265 443.602 303.745 444.809C305.051 448.133 303.232 451.921 298.552 454.633L287.885 460.04C282.907 462.918 270.438 466.011 266.122 463.513L259.441 461.529C258.647 461.992 249.882 457.742 248.873 457.742C247.997 457.742 240.819 453.872 240.191 453.508L193.274 426.519L183.269 420.764L126.347 388.02C125.867 387.738 121.402 385.01 121.187 384.58C119.897 383.604 119.021 382.48 118.541 381.272C117.235 377.948 119.054 374.161 123.734 371.449Z" fill="black"/>
<path opacity="0.9091" d="M125.09 372.524L135.393 367.398C140.933 364.206 151.765 362.47 156.561 365.231L162.977 367.993C163.374 367.761 172.519 372.64 173.016 372.64C173.446 372.64 180.937 376.824 181.251 377.006L226.366 403.003L235.974 408.543L290.696 440.08C290.945 440.212 295.674 443.04 295.79 443.239C297.13 444.115 298.056 445.157 298.585 446.282C300.057 449.407 298.37 453.095 293.789 455.741L283.486 460.868C277.946 464.059 267.114 465.796 262.318 463.034L255.902 460.272C255.505 460.504 246.359 455.625 245.863 455.625C245.433 455.625 237.942 451.441 237.628 451.259L192.513 425.262L182.905 419.722L128.182 388.185C127.934 388.053 123.205 385.225 123.089 385.027C121.749 384.15 120.823 383.108 120.294 381.984C118.822 378.858 120.509 375.187 125.09 372.524Z" fill="black"/>
<path opacity="0.2" d="M258.547 462.604L191.769 424.039L124.991 385.473C119.715 382.43 120.377 377.105 126.462 373.599L136.385 368.737C142.471 365.215 151.682 364.834 156.958 367.877L223.736 406.443L290.515 445.008C295.79 448.051 295.128 453.376 289.043 456.882L279.12 461.744C273.034 465.267 263.823 465.647 258.547 462.604Z" fill="black"/>
</g>
<path d="M266.419 456.055L146.605 386.879C133.094 379.073 122.13 358.137 122.13 340.127V21.0691C122.13 11.9073 114.605 9.87319 119.153 6.58223C119.318 6.44993 129.853 1.67058 130.051 1.60443C134.963 -0.280843 140.222 -1.10772 146.605 2.56361L266.419 71.74C279.93 79.5457 290.895 100.482 290.895 118.492V437.55C290.895 447.125 287.802 453.955 282.874 457.081C282.576 457.263 269.909 463.299 269.578 463.398C265.212 464.853 272.323 459.462 266.419 456.055Z" fill="url(#paint0_linear)"/>
<path d="M265.311 72.104L145.497 2.92759C139.114 -0.760275 258.68 74.3035 258.68 74.3035C272.191 82.1092 283.155 103.046 283.155 121.055C283.155 121.055 289.787 447.489 289.787 437.914V118.856C289.787 100.846 278.823 79.9097 265.311 72.104Z" fill="url(#paint1_radial)"/>
<path opacity="0.6" d="M257.109 460.306L137.294 391.129C123.783 383.324 112.819 362.387 112.819 344.378V25.3195C112.819 7.29359 123.767 -0.975174 137.294 6.81399L257.109 75.9904C270.62 83.7961 281.584 104.733 281.584 122.742V441.8C281.584 459.826 270.62 468.111 257.109 460.306Z" fill="url(#paint2_radial)"/>
<path d="M254.975 461.463L135.161 392.287C121.65 384.481 110.686 363.544 110.686 345.535V26.4768C110.686 8.45094 121.633 0.182174 135.161 7.97134L254.975 77.1478C268.486 84.9535 279.451 105.89 279.451 123.899V442.958C279.451 460.983 268.486 469.269 254.975 461.463Z" fill="url(#paint3_linear)"/>
<path d="M114.043 347.652V28.2134C114.043 12.4201 123.651 5.16012 135.492 11.9901L254.661 80.7862C266.502 87.6327 276.11 105.973 276.11 121.766V441.221C276.11 457.015 266.502 464.275 254.661 457.445L135.492 388.649C123.651 381.802 114.043 363.462 114.043 347.652Z" fill="url(#paint4_linear)"/>
<path d="M118.805 349.604V31.7692C118.805 18.5392 126.843 12.4699 136.765 18.1919L253.388 85.5327C263.31 91.2546 271.347 106.618 271.347 119.831V437.666C271.347 450.879 263.31 456.965 253.388 451.243L136.765 383.902C126.843 378.181 118.805 362.817 118.805 349.604Z" fill="url(#paint5_linear)"/>
<path d="M138.105 21.7138C128.761 16.3226 121.187 20.6389 121.187 31.3552V352.762C121.187 363.478 128.761 376.559 138.105 381.951L252.032 447.72C261.375 453.111 268.95 448.795 268.95 438.079V116.672C268.95 105.956 261.375 92.8747 252.032 87.4835L138.105 21.7138Z" fill="#3E4694"/>
<path opacity="0.8" d="M121.187 288.001V352.762C121.187 363.495 128.761 376.56 138.105 381.951L252.032 447.72C261.375 453.112 268.95 448.795 268.95 438.079V373.318L121.187 288.001Z" fill="#DDDAE1"/>
<path d="M282.659 197.723V176.191C282.659 173.429 284.329 170.237 286.397 169.047C288.464 167.856 290.134 169.113 290.134 171.875V193.406C290.134 196.168 288.464 199.36 286.397 200.551C284.346 201.741 282.659 200.485 282.659 197.723Z" fill="url(#paint6_linear)"/>
<path d="M284.925 200.187C283.85 200.187 283.486 198.864 283.486 197.723V176.191C283.486 173.743 285.007 170.783 286.827 169.741C287.207 169.526 287.587 169.394 287.901 169.394C288.976 169.394 289.34 170.717 289.34 171.858V193.39C289.34 195.837 287.819 198.798 286 199.839C285.619 200.071 285.239 200.187 284.925 200.187Z" fill="url(#paint7_linear)"/>
<path d="M284.577 198.285V176.753C284.577 174.306 286.099 171.345 287.918 170.303C288.265 170.105 288.58 170.006 288.877 169.989C288.646 169.642 288.331 169.41 287.901 169.41C287.587 169.41 287.207 169.526 286.827 169.758C285.024 170.8 283.486 173.76 283.486 176.207V197.739C283.486 198.88 283.866 200.203 284.925 200.203C284.958 200.203 285.007 200.187 285.04 200.187C284.71 199.674 284.577 198.946 284.577 198.285Z" fill="url(#paint8_radial)"/>
<path opacity="0.2" d="M187.353 461.744C187.386 461.728 187.42 461.711 187.469 461.695L99.4235 410.858L87.2684 403.846C87.2684 403.846 87.2518 403.846 87.2518 403.863C83.349 406.112 77.0316 406.112 73.0792 403.88L70.8962 405.136C73.013 406.393 72.9965 408.411 70.8466 409.635C68.6968 410.875 65.2239 410.875 63.0409 409.651L61.536 410.511C63.6528 411.768 63.6363 413.785 61.4864 415.009C59.3365 416.25 55.8636 416.25 53.6807 415.026L52.1758 415.886C54.2926 417.143 54.276 419.16 52.1262 420.384C49.9763 421.624 46.5034 421.624 44.3204 420.401L42.8155 421.26C44.9323 422.517 44.9158 424.535 42.7659 425.759C40.616 426.999 37.1432 426.999 34.9602 425.775L32.3969 427.247C36.2832 429.529 36.2832 433.184 32.3804 435.433C32.3473 435.45 32.3142 435.466 32.2646 435.483L44.4197 442.511L132.465 493.348C132.465 493.348 132.482 493.347 132.482 493.331C136.385 491.082 142.702 491.082 146.655 493.314L148.838 492.058C146.721 490.801 146.737 488.783 148.887 487.559C151.037 486.319 154.51 486.319 156.693 487.543L158.198 486.683C156.081 485.426 156.097 483.408 158.247 482.185C160.397 480.944 163.87 480.944 166.053 482.168L167.558 481.308C165.441 480.051 165.458 478.034 167.608 476.81C169.757 475.57 173.23 475.57 175.413 476.793L176.918 475.934C174.801 474.677 174.818 472.659 176.968 471.435C179.118 470.195 182.591 470.195 184.774 471.419L187.337 469.947C183.467 467.648 183.467 463.993 187.353 461.744Z" fill="black"/>
<path d="M147.415 485.492C149.565 484.252 153.038 484.252 155.221 485.476L156.726 484.616C154.609 483.359 154.626 481.341 156.776 480.118C158.925 478.877 162.398 478.877 164.581 480.101L166.086 479.241C163.969 477.984 163.986 475.967 166.136 474.743C168.286 473.503 171.759 473.503 173.942 474.726L175.446 473.866C173.33 472.61 173.346 470.592 175.496 469.368C177.646 468.128 181.119 468.128 183.302 469.352L185.865 467.88C181.979 465.598 181.979 461.943 185.882 459.694C185.915 459.677 185.948 459.661 185.997 459.644L97.9516 408.808L42.981 440.543L131.027 491.38C131.027 491.38 131.043 491.38 131.043 491.363C134.946 489.114 141.263 489.114 145.216 491.347L147.399 490.09C145.249 488.734 145.265 486.733 147.415 485.492Z" fill="url(#paint9_linear)"/>
<path d="M69.3086 407.485C67.1587 408.725 63.6859 408.725 61.5029 407.501L59.998 408.361C62.1148 409.618 62.0983 411.635 59.9484 412.859C57.7986 414.1 54.3257 414.1 52.1427 412.876L50.6378 413.736C52.7546 414.993 52.7381 417.01 50.5882 418.234C48.4383 419.474 44.9654 419.474 42.7825 418.251L41.2776 419.11C43.3944 420.367 43.3778 422.385 41.228 423.609C39.0781 424.849 35.6052 424.849 33.4222 423.625L30.8589 425.097C34.7452 427.379 34.7453 431.034 30.8424 433.283C30.8093 433.3 30.7762 433.316 30.7266 433.333L98.117 472.245L153.088 440.51L85.7139 401.614C85.7139 401.614 85.6973 401.614 85.6973 401.63C81.7945 403.879 75.4772 403.879 71.5247 401.647L69.3417 402.904C71.4585 404.243 71.4585 406.244 69.3086 407.485Z" fill="#5CB29C"/>
<path d="M167.525 460.438L149.664 450.118L151.699 448.944L169.559 459.263L167.525 460.438Z" fill="#45108A"/>
<path d="M166.764 460.868L148.904 450.565L147.878 451.144L165.739 461.463L166.764 460.868Z" fill="#45108A"/>
<path d="M160.083 464.737L142.206 454.418L141.197 455.013L159.058 465.316L160.083 464.737Z" fill="#45108A"/>
<path d="M150.359 470.344L132.482 460.024L131.176 460.785L149.036 471.105L150.359 470.344Z" fill="#45108A"/>
<path d="M147.928 471.749L130.051 461.447L129.29 461.877L147.151 472.196L147.928 471.749Z" fill="#45108A"/>
<path d="M160.943 464.241L143.066 453.922L144.058 453.36L161.919 463.663L160.943 464.241Z" fill="#45108A"/>
<path d="M162.878 463.117L145.017 452.798L147.051 451.624L164.912 461.943L162.878 463.117Z" fill="#45108A"/>
<path d="M156.064 467.053L138.204 456.733L140.238 455.559L158.098 465.878L156.064 467.053Z" fill="#45108A"/>
<path d="M155.205 467.549L137.344 457.229L136.418 457.759L154.278 468.078L155.205 467.549Z" fill="#45108A"/>
<path d="M151.103 469.914L133.226 459.594L135.277 458.42L153.137 468.74L151.103 469.914Z" fill="#45108A"/>
<path d="M144.422 473.784L126.545 463.464L128.579 462.29L146.456 472.61L144.422 473.784Z" fill="#45108A"/>
<path d="M141.363 475.536L123.486 465.233L125.536 464.043L143.397 474.362L141.363 475.536Z" fill="#45108A"/>
<path d="M139.064 476.876L121.187 466.557L122.444 465.829L140.321 476.148L139.064 476.876Z" fill="#45108A"/>
<path d="M133.524 480.067L115.663 469.748L117.003 468.971L134.863 479.29L133.524 480.067Z" fill="#45108A"/>
<path d="M130.464 481.821L112.604 471.518L114.638 470.344L132.515 480.646L130.464 481.821Z" fill="#45108A"/>
<path d="M136.004 478.629L118.144 468.31L120.178 467.135L138.055 477.455L136.004 478.629Z" fill="#45108A"/>
<path d="M55.384 441.899C55.5163 442.197 55.814 442.561 56.3101 442.858C57.0543 443.288 57.8647 443.305 58.4269 442.991C58.9396 442.693 58.9396 442.346 58.4765 441.75C57.8812 441.039 57.7985 440.444 58.5758 439.997C59.4357 439.501 60.8083 439.551 61.8833 440.163C62.4621 440.494 62.7432 440.808 62.8425 441.039L62.0652 441.254C61.9825 441.089 61.7675 440.775 61.2714 440.493C60.5107 440.047 59.7664 440.146 59.3861 440.361C58.8734 440.659 58.9561 441.006 59.4192 441.618C59.998 442.379 60.0311 442.908 59.2207 443.388C58.3608 443.884 56.9881 443.933 55.6651 443.173C55.1194 442.858 54.6894 442.428 54.5902 442.147L55.384 441.899Z" fill="#45108A"/>
<path d="M64.1987 444.975L62.0323 443.718L60.0312 444.876L62.4457 446.265L61.8504 446.612L58.7083 444.793L64.2483 441.585L67.2581 443.321L66.6628 443.668L64.3641 442.345L62.6111 443.354L64.7775 444.611L64.1987 444.975Z" fill="#45108A"/>
<path d="M65.4223 446.678L63.0905 447.356L62.3463 446.926L69.7882 444.826L70.6647 445.322L67.0265 449.622L66.2492 449.175L67.3903 447.819L65.4223 446.678ZM67.8202 447.422L68.8787 446.182C69.1102 445.901 69.3582 445.669 69.6063 445.438L69.5898 445.421C69.1763 445.57 68.7463 445.702 68.2998 445.835L66.15 446.447L67.8202 447.422Z" fill="#45108A"/>
<path d="M73.2115 447.489L71.5082 446.513L72.1201 446.166L76.2544 448.547L75.6426 448.894L73.9392 447.902L68.9944 450.746L68.2668 450.333L73.2115 447.489Z" fill="#45108A"/>
<path d="M89.749 409.982C90.2121 410.18 90.7247 410.428 91.2374 410.726C92.18 411.272 92.6266 411.784 92.6596 412.264C92.6927 412.76 92.3785 413.256 91.5682 413.719C90.7413 414.199 89.8152 414.43 88.8891 414.43C87.9465 414.43 86.9046 414.116 85.9289 413.554C85.4658 413.289 85.102 413.041 84.8043 412.843L89.749 409.982ZM85.9454 412.925C86.0777 413.041 86.3092 413.173 86.5738 413.322C87.9629 414.133 89.5009 414.116 90.857 413.339C92.0477 412.661 92.1304 411.834 90.7413 411.04C90.4105 410.842 90.1129 410.709 89.9144 410.643L85.9454 412.925Z" fill="#45108A"/>
<path d="M92.0809 415.224L89.9806 415.836L89.3026 415.439L96.0499 413.521L96.8437 413.984L93.5362 417.886L92.8416 417.49L93.8835 416.266L92.0809 415.224ZM94.2473 415.885L95.2065 414.761C95.4215 414.513 95.653 414.298 95.868 414.083L95.8515 414.066C95.4711 414.199 95.0907 414.331 94.6773 414.447L92.7258 414.992L94.2473 415.885Z" fill="#45108A"/>
<path d="M99.1423 415.952L97.6043 415.059L98.15 414.745L101.904 416.911L101.358 417.225L99.8038 416.332L95.3221 418.912L94.6606 418.532L99.1423 415.952Z" fill="#45108A"/>
<path d="M102.4 420.301L100.432 419.16L98.6131 420.202L100.813 421.475L100.267 421.79L97.4224 420.152L102.45 417.242L105.178 418.813L104.633 419.127L102.549 417.92L100.961 418.829L102.929 419.97L102.4 420.301Z" fill="#45108A"/>
<path d="M103.425 423.956L110.933 422.038L111.446 422.336L103.938 424.237L103.425 423.956Z" fill="#45108A"/>
<path d="M115.2 425.229L113.662 424.336L114.208 424.022L117.962 426.189L117.416 426.503L115.862 425.61L111.38 428.19L110.719 427.809L115.2 425.229Z" fill="#45108A"/>
<path d="M119.186 426.899L114.158 429.81L113.513 429.43L118.541 426.519L119.186 426.899Z" fill="#45108A"/>
<path d="M121.766 431.646C122.427 431.216 123.221 430.703 123.866 430.356L123.849 430.339C123.089 430.587 122.245 430.819 121.303 431.067L117.962 431.96L117.466 431.679L119.037 429.827C119.5 429.281 119.946 428.785 120.41 428.355L120.393 428.338C119.748 428.686 118.872 429.149 118.078 429.562L115.779 430.736L115.151 430.372L120.525 427.677L121.352 428.156L119.781 430.058C119.368 430.538 118.987 430.951 118.59 431.332L118.607 431.348C119.235 431.133 119.98 430.918 120.839 430.67L124.18 429.794L125.007 430.273L120.294 433.366L119.649 433.002L121.766 431.646Z" fill="#45108A"/>
<path d="M126.313 434.093L124.345 432.952L122.526 433.994L124.726 435.268L124.18 435.582L121.336 433.945L126.363 431.034L129.092 432.605L128.546 432.919L126.462 431.712L124.875 432.622L126.843 433.763L126.313 434.093Z" fill="#45108A"/>
<path fill-rule="evenodd" clip-rule="evenodd" d="M99.7378 441.717L110.223 435.631C111.694 434.457 111.264 432.704 109.214 431.53L91.4855 421.293C89.4348 420.119 86.4085 419.871 84.3909 420.715L73.84 426.767L71.1609 428.289L64.9924 431.861C63.5206 432.704 63.5206 434.093 65.009 434.953L65.8027 435.416L63.7521 436.607C63.0906 436.987 63.0906 437.616 63.7521 438.013L65.7035 439.137C66.3816 439.518 67.4565 439.534 68.1345 439.137L70.1852 437.947L80.4219 443.851L78.3713 445.041C77.7098 445.422 77.7098 446.05 78.3713 446.447L80.3227 447.572C81.0007 447.968 82.0757 447.968 82.7537 447.572L84.8044 446.381L85.5982 446.844C87.0865 447.704 89.4679 447.704 90.9398 446.86L97.1082 443.288L99.7378 441.717ZM85.9951 421.988C86.9212 421.608 88.4757 421.79 89.5341 422.401L107.262 432.638C108.321 433.25 108.635 434.16 107.973 434.689L97.9517 440.411L76.056 427.776L85.9951 421.988ZM69.8048 430.869C70.549 430.439 71.7397 430.439 72.4839 430.869L74.1873 431.861C74.9315 432.291 74.9315 432.985 74.2038 433.399C73.4762 433.829 72.2689 433.829 71.5248 433.399L69.8213 432.407C69.0772 431.993 69.0772 431.299 69.8048 430.869ZM82.3238 441.734L73.7904 436.806L76.0891 435.483L84.6224 440.411L82.3238 441.734ZM92.5935 444.033C91.8659 444.462 90.6587 444.462 89.9145 444.033L88.2111 443.04C87.4669 442.61 87.4669 441.916 88.1946 441.502C88.9222 441.072 90.1294 441.072 90.8736 441.502L92.577 442.495C93.3377 442.908 93.3377 443.603 92.5935 444.033Z" fill="#EBDEF3"/>
<path d="M87.3842 462.637L89.7325 461.281C90.5429 460.818 91.3036 460.586 92.0478 460.586C92.7919 460.586 93.5527 460.818 94.3299 461.264L94.7269 461.496C95.2395 461.794 95.5703 462.075 95.7356 462.356C95.901 462.637 95.8679 462.918 95.6695 463.199L95.7026 463.216C96.7444 462.918 97.8194 463.1 98.9439 463.745L99.8039 464.241C100.581 464.688 100.962 465.134 100.962 465.614C100.962 466.077 100.581 466.54 99.8039 466.986L97.3563 468.409L87.3842 462.637ZM93.6188 463.729C93.9331 463.547 94.0819 463.365 94.0819 463.183C94.0819 463.001 93.8834 462.802 93.5031 462.571L92.9408 462.257C92.577 462.042 92.2628 461.926 91.9651 461.909C91.684 461.893 91.3863 461.959 91.1217 462.124L90.3775 462.554L93.0235 464.076L93.6188 463.729ZM98.3982 466.16C98.6793 465.994 98.7951 465.845 98.7785 465.68C98.762 465.515 98.5801 465.333 98.2163 465.118L97.3398 464.622C96.8767 464.357 96.4964 464.225 96.1656 464.208C95.8349 464.192 95.4876 464.291 95.1238 464.506L94.4292 464.903L97.4886 466.672L98.3982 466.16Z" fill="#D3B7E4"/>
<path d="M103.128 464.489C102.301 464.473 101.474 464.225 100.68 463.762L93.073 459.363L94.6275 458.47L102.351 462.935C102.698 463.133 103.012 463.232 103.293 463.249C103.574 463.266 103.855 463.183 104.103 463.034C104.352 462.885 104.484 462.736 104.467 462.554C104.451 462.389 104.269 462.207 103.938 462.009L96.2151 457.544L97.72 456.684L105.327 461.083C106.138 461.546 106.551 462.025 106.601 462.505C106.634 462.984 106.27 463.447 105.526 463.877C104.748 464.307 103.955 464.506 103.128 464.489Z" fill="#D3B7E4"/>
<path d="M108.602 461.331C107.775 461.298 106.965 461.066 106.154 460.587L105.592 460.256L107.064 459.412L107.742 459.809C108.387 460.19 108.982 460.206 109.511 459.909C109.776 459.76 109.892 459.594 109.875 459.429C109.859 459.264 109.677 459.065 109.313 458.867C108.899 458.619 108.436 458.47 107.924 458.387C107.411 458.304 106.683 458.288 105.724 458.337C104.517 458.387 103.541 458.337 102.83 458.222C102.119 458.106 101.474 457.874 100.879 457.544C100.085 457.081 99.6716 456.618 99.6385 456.138C99.6054 455.658 99.9692 455.195 100.713 454.765C101.458 454.335 102.235 454.137 103.062 454.17C103.872 454.203 104.682 454.451 105.493 454.914L105.906 455.146L104.434 455.989L103.922 455.691C103.574 455.493 103.26 455.394 102.979 455.377C102.681 455.361 102.417 455.427 102.169 455.576C101.656 455.873 101.706 456.204 102.351 456.585C102.714 456.799 103.144 456.932 103.657 456.998C104.17 457.064 104.897 457.081 105.857 457.048C107.08 456.998 108.04 457.048 108.751 457.163C109.462 457.296 110.123 457.527 110.752 457.891C111.562 458.371 111.992 458.834 112.025 459.33C112.058 459.809 111.694 460.272 110.934 460.719C110.206 461.149 109.412 461.364 108.602 461.331Z" fill="#D3B7E4"/>
<path d="M108.999 451.805L107.361 452.748L105.939 451.921L110.752 449.143L112.174 449.969L110.537 450.912L119.086 455.857L117.532 456.75L108.999 451.805Z" fill="#D3B7E4"/>
<path d="M111.512 448.713L113.067 447.82L123.055 453.575L121.501 454.468L111.512 448.713Z" fill="#D3B7E4"/>
<path d="M124.197 452.334C123.37 452.318 122.576 452.086 121.799 451.623L116.441 448.531C115.663 448.084 115.25 447.621 115.217 447.142C115.184 446.662 115.531 446.215 116.275 445.785C117.019 445.355 117.797 445.157 118.623 445.174C119.45 445.19 120.244 445.422 121.021 445.885L122.08 446.497L120.608 447.34L119.45 446.678C118.838 446.315 118.26 446.298 117.747 446.596C117.234 446.893 117.284 447.224 117.896 447.588L123.469 450.813C124.081 451.16 124.643 451.193 125.156 450.896C125.668 450.598 125.635 450.267 125.023 449.92L123.502 449.043L124.974 448.2L126.38 449.01C127.157 449.457 127.57 449.92 127.603 450.399C127.636 450.879 127.289 451.325 126.545 451.755C125.801 452.152 125.007 452.351 124.197 452.334Z" fill="#D3B7E4"/>
<path d="M119.649 443.999L121.203 443.106L125.404 445.537L123.188 441.965L124.742 441.072L126.545 444.264L134.748 446.827L133.11 447.77L127.339 445.967L127.984 447.059L131.159 448.894L129.604 449.787L119.649 443.999Z" fill="#D3B7E4"/>
<path d="M125.52 440.625L129.77 438.178L131.192 439.005L128.496 440.559L131.126 442.081L133.259 440.84L134.681 441.667L132.548 442.907L135.608 444.677L138.303 443.122L139.725 443.949L135.475 446.397L125.52 440.625Z" fill="#D3B7E4"/>
<path d="M133.309 437.765L131.672 438.707L130.249 437.88L135.062 435.102L136.484 435.929L134.847 436.872L143.397 441.816L141.842 442.709L133.309 437.765Z" fill="#D3B7E4"/>
<path opacity="0.2" d="M103.69 446.249L73.5919 409.337H73.5753C68.5645 410.676 62.6109 409.436 60.213 406.559L57.4016 407.319C58.642 408.923 57.4513 410.792 54.706 411.536C51.9608 412.281 48.6864 411.603 47.3303 410.031L45.3954 410.544C46.6357 412.148 45.445 414.017 42.6998 414.761C39.9545 415.505 36.6801 414.827 35.3241 413.256L33.3891 413.769C34.6295 415.373 33.4388 417.242 30.6936 417.986C27.9483 418.73 24.6739 418.052 23.3178 416.481L21.3829 416.994C22.6233 418.598 21.4325 420.467 18.6873 421.211C15.9421 421.955 12.6677 421.277 11.3116 419.706L8.0206 420.582C10.3359 423.493 8.16945 426.916 3.17512 428.256C3.12551 428.272 3.09246 428.272 3.04285 428.289L10.369 437.269L63.3552 502.261H63.3717C68.3825 500.922 74.3361 502.162 76.734 505.039L79.5454 504.279C78.305 502.675 79.4958 500.806 82.241 500.062C84.9862 499.318 88.2606 499.996 89.6167 501.567L91.5516 501.054C90.3113 499.45 91.502 497.581 94.2472 496.837C96.9925 496.093 100.267 496.771 101.623 498.342L103.558 497.829C102.318 496.225 103.508 494.356 106.253 493.612C108.999 492.868 112.273 493.546 113.629 495.117L115.564 494.604C114.324 493 115.514 491.131 118.26 490.387C121.005 489.643 124.279 490.321 125.635 491.892L128.926 491.016C126.611 488.105 128.778 484.682 133.772 483.342C133.821 483.326 133.871 483.326 133.904 483.309L103.69 446.249Z" fill="black"/>
<path d="M79.2478 498.177C81.993 497.432 85.2674 498.11 86.6235 499.681L88.5584 499.169C87.3181 497.565 88.5088 495.696 91.254 494.952C93.9993 494.208 97.2737 494.886 98.6298 496.457L100.565 495.944C99.3243 494.34 100.515 492.471 103.26 491.727C106.005 490.983 109.28 491.661 110.636 493.232L112.571 492.719C111.331 491.115 112.521 489.246 115.266 488.502C118.012 487.758 121.286 488.436 122.642 490.007L125.933 489.13C123.618 486.22 125.784 482.797 130.779 481.457C130.828 481.441 130.878 481.441 130.911 481.424L77.9248 416.415L7.40881 435.384L60.395 500.376H60.4116C65.4224 499.036 71.3759 500.277 73.7739 503.154L76.5853 502.394C75.3119 500.789 76.5026 498.921 79.2478 498.177Z" fill="url(#paint10_linear)"/>
<path opacity="0.8" d="M51.6632 409.651C48.918 410.395 45.6435 409.717 44.2875 408.146L42.3526 408.659C43.5929 410.263 42.4022 412.132 39.6569 412.876C36.9117 413.62 33.6373 412.942 32.2812 411.371L30.3463 411.884C31.5866 413.488 30.3959 415.356 27.6507 416.101C24.9054 416.845 21.631 416.167 20.275 414.596L18.3401 415.108C19.5804 416.713 18.3897 418.581 15.6445 419.326C12.8992 420.07 9.62483 419.392 8.26876 417.821L4.97776 418.697C7.29301 421.608 5.12661 425.031 0.132278 426.371C0.0826654 426.387 0.033075 426.387 0 426.404L40.55 476.148L111.066 457.18L70.5159 407.435H70.4994C65.4885 408.775 59.535 407.534 57.1371 404.657L54.3257 405.417C55.6156 407.022 54.4249 408.907 51.6632 409.651Z" fill="url(#paint11_linear)"/>
<path d="M113.001 478.629L102.235 465.432L104.848 464.721L115.614 477.918L113.001 478.629Z" fill="#45108A"/>
<path d="M112.009 478.894L101.259 465.697L99.9528 466.045L110.702 479.241L112.009 478.894Z" fill="#45108A"/>
<path d="M103.442 481.193L92.6763 467.996L91.3699 468.359L102.136 481.54L103.442 481.193Z" fill="#45108A"/>
<path d="M90.9729 484.55L80.2071 471.353L78.5202 471.816L89.2861 484.996L90.9729 484.55Z" fill="#45108A"/>
<path d="M87.8307 485.393L77.0814 472.196L76.1057 472.46L86.855 485.657L87.8307 485.393Z" fill="#45108A"/>
<path d="M104.534 480.895L93.7843 467.698L95.0577 467.367L105.807 480.548L104.534 480.895Z" fill="#45108A"/>
<path d="M107.031 480.233L96.2814 467.036L98.8944 466.325L109.644 479.522L107.031 480.233Z" fill="#45108A"/>
<path d="M98.2989 482.582L87.533 469.385L90.1459 468.674L100.912 481.871L98.2989 482.582Z" fill="#45108A"/>
<path d="M97.1909 482.88L86.4415 469.683L85.2508 469.997L96.0002 483.194L97.1909 482.88Z" fill="#45108A"/>
<path d="M91.9155 484.285L81.1661 471.105L83.779 470.394L94.5284 483.59L91.9155 484.285Z" fill="#45108A"/>
<path d="M83.3491 486.6L72.5831 473.404L75.196 472.709L85.962 485.889L83.3491 486.6Z" fill="#45108A"/>
<path d="M79.4298 487.659L68.6638 474.462L71.2767 473.75L82.0427 486.947L79.4298 487.659Z" fill="#45108A"/>
<path d="M76.4695 488.436L65.7202 475.255L67.3243 474.825L78.0902 488.006L76.4695 488.436Z" fill="#45108A"/>
<path d="M69.3749 490.354L58.6255 477.157L60.3289 476.694L71.0948 489.891L69.3749 490.354Z" fill="#45108A"/>
<path d="M65.4555 491.413L54.7061 478.216L57.319 477.505L68.0684 490.702L65.4555 491.413Z" fill="#45108A"/>
<path d="M72.5667 489.494L61.8008 476.297L64.4137 475.603L75.1796 488.8L72.5667 489.494Z" fill="#45108A"/>
<path d="M18.2574 439.187C18.1913 439.501 18.274 439.898 18.5716 440.262C19.0181 440.807 19.7789 440.989 20.49 440.791C21.1515 440.609 21.3499 440.295 21.2673 439.633C21.1349 438.856 21.3995 438.277 22.3918 437.996C23.4998 437.698 24.7567 438.013 25.4182 438.806C25.7655 439.236 25.8481 439.584 25.8151 439.815L24.9386 439.865C24.9551 439.699 24.9386 439.369 24.6409 438.988C24.1779 438.426 23.4337 438.36 22.9376 438.492C22.2761 438.674 22.1437 439.005 22.2264 439.683C22.3256 440.51 22.0445 441.022 20.9861 441.304C19.8946 441.601 18.5551 441.386 17.7613 440.411C17.4306 440.014 17.2817 439.518 17.3644 439.236L18.2574 439.187Z" fill="#45108A"/>
<path d="M24.7236 443.801L23.4172 442.196L20.8539 442.891L22.3092 444.677L21.5319 444.892L19.6466 442.577L26.7578 440.658L28.5769 442.891L27.7996 443.106L26.427 441.419L24.1779 442.031L25.4843 443.635L24.7236 443.801Z" fill="#45108A"/>
<path d="M24.8889 445.636L22.3091 445.818L21.8625 445.272L30.1148 444.76L30.644 445.405L24.6739 448.729L24.2109 448.166L26.0962 447.125L24.8889 445.636ZM26.7081 446.81L28.4279 445.851C28.8248 445.636 29.1887 445.454 29.5525 445.289L29.536 445.272C29.0564 445.322 28.5768 445.372 28.0807 445.405L25.6993 445.554L26.7081 446.81Z" fill="#45108A"/>
<path d="M31.752 447.935L30.7267 446.678L31.504 446.463L33.9846 449.523L33.2073 449.738L32.182 448.481L25.8481 450.184L25.4016 449.638L31.752 447.935Z" fill="#45108A"/>
<path d="M69.4576 416.002C69.7718 416.283 70.1191 416.614 70.4333 416.994C70.9955 417.689 71.1278 418.251 70.8632 418.73C70.6152 419.21 70.0198 419.607 68.978 419.888C67.9196 420.169 66.9108 420.219 66.0343 420.02C65.1413 419.838 64.3475 419.342 63.7521 418.615C63.471 418.267 63.2725 417.97 63.1071 417.722L69.4576 416.002ZM64.149 418.003C64.2151 418.135 64.3475 418.317 64.4963 418.499C65.3397 419.524 66.795 419.822 68.5314 419.359C70.0529 418.962 70.6152 418.201 69.7883 417.176C69.5898 416.928 69.3914 416.746 69.2426 416.63L64.149 418.003Z" fill="#45108A"/>
<path d="M68.5645 421.377L66.2162 421.542L65.8027 421.046L73.2942 420.583L73.7738 421.162L68.3661 424.171L67.9526 423.659L69.656 422.716L68.5645 421.377ZM70.2017 422.435L71.7562 421.575C72.1035 421.377 72.4508 421.228 72.7816 421.062L72.7651 421.046C72.3351 421.095 71.8885 421.145 71.442 421.178L69.2756 421.31L70.2017 422.435Z" fill="#45108A"/>
<path d="M74.7826 423.46L73.8565 422.319L74.5677 422.121L76.8167 424.882L76.1056 425.081L75.1795 423.94L69.441 425.478L69.0441 424.998L74.7826 423.46Z" fill="#45108A"/>
<path d="M75.3118 428.157L74.1211 426.702L71.7893 427.33L73.1123 428.951L72.4177 429.133L70.6979 427.033L77.1475 425.296L78.7847 427.314L78.0901 427.496L76.8333 425.958L74.7991 426.503L75.9899 427.959L75.3118 428.157Z" fill="#45108A"/>
<path d="M74.1046 431.795L82.3071 431.481L82.6214 431.862L74.4188 432.176L74.1046 431.795Z" fill="#45108A"/>
<path d="M84.4405 435.318L83.5144 434.177L84.2255 433.978L86.4746 436.74L85.7635 436.938L84.8374 435.797L79.0988 437.335L78.702 436.856L84.4405 435.318Z" fill="#45108A"/>
<path d="M87.2189 437.649L80.7692 439.386L80.3723 438.906L86.822 437.17L87.2189 437.649Z" fill="#45108A"/>
<path d="M86.855 442.61C87.7315 442.346 88.7899 442.015 89.6002 441.8L89.5836 441.783C88.7237 441.866 87.7976 441.916 86.7557 441.965L83.0844 442.147L82.7868 441.783L85.3666 440.345C86.1273 439.915 86.8384 439.551 87.5165 439.237L87.4999 439.22C86.6896 439.419 85.5816 439.683 84.5893 439.915L81.7449 440.56L81.3645 440.097L88.0291 438.625L88.5253 439.237L85.9289 440.708C85.2674 441.072 84.6555 441.403 84.0601 441.668L84.0767 441.684C84.8043 441.602 85.6146 441.552 86.5738 441.486L90.2286 441.304L90.7247 441.916L84.457 443.884L84.0767 443.421L86.855 442.61Z" fill="#45108A"/>
<path d="M89.6828 445.802L88.4921 444.347L86.1603 444.975L87.4834 446.596L86.7888 446.778L85.0688 444.678L91.5185 442.941L93.1557 444.959L92.4611 445.141L91.2043 443.603L89.1702 444.148L90.3609 445.604L89.6828 445.802Z" fill="#45108A"/>
<path d="M62.9253 459.016L60.8416 459.578L59.9816 458.52L66.1666 456.866L67.0266 457.925L64.9429 458.487L70.086 464.804L68.085 465.35L62.9253 459.016Z" fill="#D3B7E4"/>
<path d="M67.1093 456.601L69.1103 456.056L75.1134 463.431L73.1124 463.977L67.1093 456.601Z" fill="#D3B7E4"/>
<path d="M76.9325 462.505C76.1718 462.323 75.5599 461.943 75.0804 461.364L71.8555 457.412C71.3925 456.833 71.2767 456.32 71.5248 455.874C71.7729 455.427 72.3682 455.064 73.3274 454.815C74.2866 454.551 75.1465 454.518 75.9072 454.7C76.668 454.882 77.2798 455.262 77.7594 455.841L78.3879 456.618L76.5026 457.131L75.808 456.271C75.4442 455.808 74.915 455.675 74.2535 455.857C73.592 456.039 73.4431 456.353 73.8069 456.816L77.164 460.934C77.5279 461.381 78.0405 461.513 78.7186 461.331C79.3801 461.149 79.5289 460.835 79.1651 460.389L78.239 459.264L80.1243 458.751L80.9677 459.793C81.4308 460.372 81.5465 460.885 81.2984 461.331C81.0504 461.778 80.455 462.142 79.4958 462.39C78.5532 462.638 77.6933 462.687 76.9325 462.505Z" fill="#D3B7E4"/>
<path d="M77.561 453.806L79.5621 453.261L82.0923 456.37L82.1089 452.583L84.1099 452.037L83.928 455.377L90.1461 459.396L88.0624 459.958L83.6964 457.13L83.6634 458.288L85.5817 460.636L83.5807 461.182L77.561 453.806Z" fill="#D3B7E4"/>
<path d="M85.0855 451.773L90.5429 450.301L91.4029 451.359L87.9465 452.285L89.5341 454.237L92.2793 453.493L93.1393 454.551L90.394 455.295L92.2463 457.561L95.7026 456.635L96.5625 457.693L91.1052 459.165L85.0855 451.773Z" fill="#D3B7E4"/>
<path d="M94.115 450.631L92.0313 451.194L91.1713 450.135L97.3564 448.481L98.2163 449.54L96.1326 450.102L101.276 456.419L99.2747 456.965L94.115 450.631Z" fill="#D3B7E4"/>
<g opacity="0.3">
<path opacity="0.0909" d="M167.938 326.864C160.05 322.316 153.667 325.954 153.667 335V354.978C153.667 364.024 160.05 375.038 167.938 379.586L223.091 411.172C230.979 415.72 240.24 411.619 240.24 402.573V382.595C240.24 373.549 230.963 362.982 223.091 358.434L167.938 326.864Z" fill="url(#paint12_linear)"/>
<path opacity="0.1818" d="M167.508 327.492C159.67 322.961 153.303 326.583 153.303 335.596V354.564C153.303 363.561 159.653 374.525 167.508 379.056L222.181 410.362C230.02 414.893 238.984 410.858 238.984 401.862V382.893C238.984 373.897 230.037 363.346 222.181 358.815L167.508 327.492Z" fill="url(#paint13_linear)"/>
<path opacity="0.2727" d="M167.078 328.138C159.273 323.639 152.955 327.245 152.955 336.191V354.151C152.955 363.114 159.289 374.013 167.078 378.527L221.288 409.568C229.094 414.067 237.727 410.098 237.727 401.151V383.191C237.727 374.228 229.094 363.693 221.288 359.179L167.078 328.138Z" fill="url(#paint14_linear)"/>
<path opacity="0.3636" d="M166.665 328.783C158.892 324.301 152.608 327.89 152.608 336.803V353.754C152.608 362.668 158.909 373.517 166.665 378.015L220.395 408.775C228.168 413.256 236.47 409.354 236.47 400.44V383.489C236.47 374.575 228.151 364.041 220.395 359.559L166.665 328.783Z" fill="url(#paint15_linear)"/>
<path opacity="0.4545" d="M166.235 329.411C158.512 324.946 152.244 328.518 152.244 337.382V353.324C152.244 362.188 158.512 373.004 166.235 377.452L219.502 407.947C227.225 412.413 235.229 408.559 235.229 399.695V383.753C235.229 374.889 227.242 364.355 219.502 359.889L166.235 329.411Z" fill="url(#paint16_linear)"/>
<path opacity="0.5455" d="M165.805 330.056C158.115 325.624 151.88 329.163 151.88 337.994V352.928C151.88 361.742 158.115 372.508 165.805 376.94L218.593 407.154C226.283 411.586 233.956 407.816 233.956 398.985V384.051C233.956 375.237 226.283 364.702 218.593 360.27L165.805 330.056Z" fill="url(#paint17_linear)"/>
<path opacity="0.6364" d="M165.375 330.701C157.718 326.286 151.517 329.825 151.517 338.606V352.547C151.517 361.329 157.718 372.028 165.375 376.444L217.7 406.393C225.357 410.809 232.699 407.088 232.699 398.306V384.365C232.699 375.584 225.34 365.066 217.7 360.651L165.375 330.701Z" fill="url(#paint18_linear)"/>
<path opacity="0.7273" d="M164.962 331.329C157.354 326.93 151.186 330.453 151.186 339.185V352.117C151.186 360.849 157.354 371.499 164.962 375.881L216.807 405.55C224.414 409.949 231.459 406.294 231.459 397.562V384.63C231.459 375.898 224.431 365.397 216.807 360.998L164.962 331.329Z" fill="url(#paint19_linear)"/>
<path opacity="0.8182" d="M164.532 331.974C156.957 327.608 150.822 331.098 150.822 339.796V351.72C150.822 360.402 156.957 371.003 164.532 375.369L215.914 404.772C223.488 409.138 230.202 405.549 230.202 396.867V384.944C230.202 376.262 223.488 365.76 215.914 361.378L164.532 331.974Z" fill="url(#paint20_linear)"/>
<path opacity="0.9091" d="M164.102 332.619C156.561 328.27 150.458 331.759 150.458 340.391V351.306C150.458 359.955 156.561 370.49 164.102 374.839L215.004 403.978C222.545 408.328 228.929 404.805 228.929 396.156V385.241C228.929 376.592 222.529 366.107 215.004 361.758L164.102 332.619Z" fill="url(#paint21_linear)"/>
<path opacity="0.3" d="M163.672 333.248C156.18 328.915 150.094 332.388 150.094 340.987V350.893C150.094 359.493 156.164 369.978 163.672 374.294L214.111 403.152C221.603 407.485 227.689 404.012 227.689 395.412V385.506C227.689 376.907 221.619 366.422 214.111 362.106L163.672 333.248Z" fill="url(#paint22_linear)"/>
</g>
<path d="M223.207 411.321L159.686 374.922C153.203 371.185 147.911 361.047 147.911 352.415V339.664C147.911 331.032 153.22 327.013 159.686 330.767L223.207 367.166C229.689 370.904 234.981 381.041 234.981 389.674V402.424C234.981 411.057 229.689 415.059 223.207 411.321Z" fill="url(#paint23_linear)"/>
<path d="M223.207 367.166L159.686 330.767C153.203 327.029 147.911 331.031 147.911 339.664V340.987C147.911 332.354 153.22 328.336 159.686 332.09L223.207 368.489C229.689 372.226 234.981 382.364 234.981 390.996V389.673C234.981 381.024 229.689 370.903 223.207 367.166Z" fill="url(#paint24_radial)"/>
<path d="M129.456 108.553L258.895 182.971V149.07L129.456 74.6508V108.553Z" fill="white"/>
<path d="M196.978 155.751V189.653L258.895 225.489V191.588L196.978 155.751Z" fill="white"/>
<path opacity="0.3" d="M258.895 222.513L199.74 188.28V157.355L196.978 155.751V189.653L258.895 225.489V222.513Z" fill="url(#paint25_linear)"/>
<path d="M129.456 117.169V151.071L192.844 187.172V153.27L129.456 117.169Z" fill="white"/>
<path opacity="0.3" d="M192.844 184.195L132.201 149.681V118.756L129.456 117.169V151.071L192.844 187.172V184.195Z" fill="url(#paint26_linear)"/>
<path opacity="0.3" d="M258.895 179.995L132.201 107.164V76.2384L129.456 74.6508V108.553L258.895 182.971V179.995Z" fill="url(#paint27_linear)"/>
<path opacity="0.5" d="M138.981 221.967C135.343 216.162 133.326 209.977 132.978 203.428C132.879 201.576 132.846 199.178 132.846 196.218C132.846 193.043 132.879 190.529 132.978 188.693C133.342 182.343 135.277 178.291 138.783 176.489C142.289 174.703 147.217 175.645 153.567 179.333C159.918 183.005 164.879 187.751 168.418 193.605C171.957 199.459 173.909 205.777 174.289 212.541C174.471 216.46 174.57 219.04 174.57 220.313C174.57 221.487 174.487 223.803 174.289 227.292C173.925 233.427 171.924 237.281 168.286 238.885C164.648 240.489 159.736 239.497 153.567 235.941C147.482 232.419 142.62 227.772 138.981 221.967ZM140.156 282.494C139.593 281.585 139.329 280.675 139.329 279.716C139.329 279.071 139.511 278.591 139.874 278.277L207.992 214.542C208.737 213.913 209.431 213.533 210.06 213.434C210.705 213.334 211.631 213.615 212.821 214.31L220.147 218.544C221.057 219.073 221.785 219.784 222.281 220.66C222.793 221.537 223.042 222.446 223.042 223.389C223.042 224.018 222.86 224.497 222.496 224.811L154.378 288.547C153.634 289.192 152.939 289.539 152.311 289.655C151.666 289.754 150.789 289.49 149.681 288.845L142.355 284.611C141.445 284.115 140.701 283.404 140.156 282.494ZM159.422 224.729C160.662 223.654 161.423 221.818 161.704 219.238C161.886 215.749 161.985 213.582 161.985 212.739C161.985 211.565 161.886 209.349 161.704 206.074C161.522 203.23 160.778 200.501 159.488 197.905C158.198 195.308 156.213 193.241 153.551 191.703C150.955 190.215 149.036 190.016 147.746 191.124C146.456 192.232 145.712 194.101 145.53 196.747C145.448 198.285 145.398 200.435 145.398 203.164C145.398 205.81 145.448 208.042 145.53 209.911C145.712 212.656 146.423 215.302 147.68 217.882C148.92 220.445 150.872 222.513 153.551 224.051C156.23 225.589 158.181 225.804 159.422 224.729ZM194.25 309.765C190.611 303.795 188.594 297.494 188.23 290.829C188.147 288.977 188.098 286.579 188.098 283.619C188.098 280.559 188.131 278.095 188.23 276.243C188.594 269.909 190.545 265.857 194.035 264.055C197.524 262.269 202.469 263.211 208.819 266.866C215.269 270.587 220.247 275.367 223.753 281.204C227.242 287.025 229.177 293.326 229.557 300.09C229.739 304.01 229.838 306.54 229.838 307.697C229.838 308.855 229.756 311.187 229.557 314.676C229.194 320.927 227.192 324.913 223.554 326.666C219.916 328.419 215.004 327.509 208.836 323.954C202.75 320.464 197.888 315.735 194.25 309.765ZM214.839 312.295C216.079 311.17 216.79 309.335 216.972 306.804C217.154 303.315 217.253 301.099 217.253 300.14C217.253 299.081 217.154 296.915 216.972 293.641C216.79 290.796 216.046 288.067 214.756 285.471C213.466 282.875 211.482 280.807 208.803 279.253C206.223 277.764 204.288 277.566 202.998 278.691C201.708 279.799 200.964 281.667 200.782 284.313C200.699 285.851 200.65 287.935 200.65 290.581C200.65 293.343 200.699 295.642 200.782 297.477C200.964 300.222 201.675 302.885 202.932 305.448C204.172 308.012 206.124 310.079 208.803 311.617C211.598 313.204 213.599 313.419 214.839 312.295Z" fill="#5284D2"/>
<path d="M156.313 97.3897L155.386 96.8605V98.3985C155.386 99.6719 154.493 100.185 153.385 99.5396C152.277 98.8946 151.384 97.3566 151.384 96.0832V94.5452L143.364 89.9147V91.4527C143.364 92.7261 142.471 93.2388 141.363 92.5938C140.255 91.9488 139.362 90.4109 139.362 89.1375V87.5995L138.435 87.0703C137.476 86.508 136.682 86.971 136.682 88.0625V103.211C136.682 104.319 137.476 105.675 138.435 106.237L156.313 116.557C157.272 117.119 158.065 116.656 158.065 115.564V100.416C158.065 99.308 157.272 97.952 156.313 97.3897ZM156.726 115.283L138.005 104.484V91.4527L156.726 102.252V115.283ZM146.704 97.2078L143.364 95.2729V97.5716L146.704 99.5065V97.2078ZM151.384 99.9199L148.044 97.985V100.284L151.384 102.219V99.9199ZM156.064 102.616L152.724 100.681V102.979L156.064 104.914V102.616ZM142.024 97.5881L138.684 95.6532V97.952L142.024 99.8868V97.5881ZM146.704 100.284L143.364 98.3489V100.648L146.704 102.582V100.284ZM151.384 102.979L148.044 101.044V103.343L151.384 105.278V102.979ZM156.064 105.692L152.724 103.757V106.055L156.064 107.99V105.692ZM142.024 100.648L138.684 98.7127V101.011L142.024 102.946V100.648ZM146.704 103.36L143.364 101.425V103.724L146.704 105.658V103.36ZM151.384 106.055L148.044 104.12V106.419L151.384 108.354V106.055ZM156.064 108.751L152.724 106.816V109.115L156.064 111.05V108.751ZM142.024 103.724L138.684 101.789V104.087L142.024 106.022V103.724ZM146.704 106.419L143.364 104.484V106.783L146.704 108.718V106.419ZM141.363 91.8331C142.107 92.263 142.702 91.9158 142.702 91.0723V87.9964C142.702 87.153 142.107 86.1111 141.363 85.6977C140.618 85.2677 140.023 85.615 140.023 86.4584V89.5344C140.023 90.3612 140.618 91.4031 141.363 91.8331ZM153.385 98.7788C154.13 99.2088 154.725 98.8615 154.725 98.0181V94.9421C154.725 94.0987 154.13 93.0569 153.385 92.6434C152.641 92.2134 152.046 92.5607 152.046 93.4041V96.4801C152.046 97.3235 152.658 98.3489 153.385 98.7788Z" fill="#5CB29C"/>
<g opacity="0.3">
<path opacity="0.0909" d="M203.13 126.363C192.282 120.096 183.5 125.107 183.5 137.559V214.674C183.5 227.11 192.298 242.275 203.13 248.543L307.432 309.665C318.281 315.933 331.048 310.294 331.048 297.841V220.727C331.048 208.29 318.281 193.754 307.432 187.486L203.13 126.363Z" fill="url(#paint28_linear)"/>
<path opacity="0.1818" d="M202.634 126.76C191.852 120.542 183.103 125.52 183.103 137.89V214.426C183.103 226.796 191.852 241.878 202.634 248.113L306.804 309.086C317.586 315.304 329.907 309.764 329.907 297.394V220.859C329.907 208.489 317.586 193.969 306.804 187.751L202.634 126.76Z" fill="url(#paint29_linear)"/>
<path opacity="0.2727" d="M202.138 127.14C191.422 120.955 182.723 125.9 182.723 138.204V214.161C182.723 226.465 191.422 241.464 202.138 247.649L306.176 308.474C316.892 314.659 328.766 309.202 328.766 296.898V220.941C328.766 208.637 316.892 194.15 306.176 187.949L202.138 127.14Z" fill="url(#paint30_linear)"/>
<path opacity="0.3636" d="M201.642 127.538C190.975 121.386 182.343 126.314 182.343 138.552V213.93C182.343 226.167 190.992 241.068 201.642 247.236L305.547 307.912C316.214 314.064 327.641 308.706 327.641 296.468V221.09C327.641 208.853 316.214 194.382 305.547 188.23L201.642 127.538Z" fill="url(#paint31_linear)"/>
<path opacity="0.4545" d="M201.146 127.934C190.545 121.815 181.946 126.71 181.946 138.882V213.681C181.946 225.853 190.545 240.67 201.146 246.789L304.919 307.317C315.519 313.436 326.5 308.16 326.5 295.988V221.189C326.5 209.018 315.519 194.58 304.919 188.462L201.146 127.934Z" fill="url(#paint32_linear)"/>
<path opacity="0.5455" d="M200.65 128.331C190.115 122.246 181.565 127.124 181.565 139.213V213.417C181.565 225.506 190.115 240.257 200.65 246.343L304.307 306.738C314.841 312.824 325.376 307.631 325.376 295.542V221.338C325.376 209.25 314.841 194.812 304.307 188.726L200.65 128.331Z" fill="url(#paint33_linear)"/>
<path opacity="0.6364" d="M200.154 128.728C189.669 122.676 181.185 127.521 181.185 139.544V213.169C181.185 225.192 189.685 239.844 200.154 245.897L303.678 306.143C314.163 312.195 324.251 307.102 324.251 295.079V221.454C324.251 209.431 314.163 195.027 303.678 188.974L200.154 128.728Z" fill="url(#paint34_linear)"/>
<path opacity="0.7273" d="M199.657 129.125C189.239 123.106 180.788 127.918 180.788 139.875V212.921C180.788 224.878 189.239 239.447 199.657 245.467L303.05 305.564C313.468 311.584 323.11 306.573 323.11 294.616V221.57C323.11 209.613 313.468 195.242 303.05 189.223L199.657 129.125Z" fill="url(#paint35_linear)"/>
<path opacity="0.8182" d="M199.145 129.522C188.792 123.535 180.391 128.331 180.391 140.222V212.689C180.391 224.579 188.792 239.066 199.145 245.036L302.405 304.985C312.757 310.971 321.952 306.06 321.952 294.169V221.685C321.952 209.795 312.757 195.44 302.405 189.454L199.145 129.522Z" fill="url(#paint36_linear)"/>
<path opacity="0.9091" d="M198.649 129.919C188.346 123.982 180.011 128.728 180.011 140.553V212.441C180.011 224.265 188.362 238.653 198.649 244.607L301.776 304.406C312.079 310.343 320.811 305.531 320.811 293.706V221.818C320.811 209.994 312.063 195.672 301.776 189.719L198.649 129.919Z" fill="url(#paint37_linear)"/>
<path opacity="0.3" d="M198.153 130.316C187.916 124.412 179.614 129.142 179.614 140.883V212.177C179.614 223.918 187.916 238.24 198.153 244.144L301.148 303.794C311.385 309.698 319.687 304.969 319.687 293.227V221.934C319.687 210.192 311.385 195.871 301.148 189.967L198.153 130.316Z" fill="url(#paint38_linear)"/>
</g>
<path opacity="0.8" d="M197.623 128.761C187.353 122.824 179.019 127.571 179.019 139.362V221.206C179.019 232.997 187.353 247.352 197.623 253.289L301.049 313.188C311.319 319.125 319.654 314.378 319.654 302.587V220.743C319.654 208.952 311.319 194.597 301.049 188.66L197.623 128.761Z" fill="url(#paint39_linear)"/>
<path d="M301.066 188.66L197.64 128.761C187.37 122.824 179.035 127.571 179.035 139.362V141.164C179.035 129.373 187.37 124.627 197.64 130.564L301.066 190.463C311.335 196.4 319.67 210.754 319.67 222.546V220.743C319.654 208.952 311.335 194.597 301.066 188.66Z" fill="#452F76"/>
<path d="M210.225 231.062C207.347 229.408 205.032 230.731 205.032 234.022C205.032 240.207 210.225 248.41 210.225 248.41C210.225 248.41 215.418 246.21 215.418 240.025C215.418 236.734 213.086 232.732 210.225 231.062ZM210.225 239.744C208.918 238.983 207.86 237.164 207.86 235.676C207.86 234.171 208.918 233.576 210.225 234.336C211.531 235.097 212.59 236.916 212.59 238.405C212.59 239.893 211.531 240.505 210.225 239.744Z" fill="white"/>
<path d="M267.494 274.489L263.939 272.439L263.046 265.807C262.864 264.402 262.12 262.946 261.144 261.888C261.657 261.772 261.921 261.309 261.805 260.648C261.624 259.705 260.697 258.729 259.755 258.448C258.829 258.183 258.233 258.696 258.366 259.589L258.349 259.573L261.276 275.597L268.983 280.046L269.396 278.392C269.71 277.135 268.768 275.217 267.494 274.489Z" fill="white"/>
<path d="M266.055 206.388L289.654 220.031V215.996L266.055 202.353V206.388Z" fill="white"/>
<path d="M227.606 180.226L202.766 166.284V170.32L227.606 184.261V180.226Z" fill="white"/>
<path d="M202.766 158.479L239.05 179.035V173.627L202.766 153.071V158.479Z" fill="white"/>
<path d="M258.829 202.221L263.161 204.718V200.683L258.829 198.186V202.221Z" fill="white"/>
<path d="M242.92 181.267L274.523 198.533V193.125L242.92 175.86V181.267Z" fill="white"/>
<path d="M255.951 196.515L230.483 181.896V185.931L255.951 200.55V196.515Z" fill="white"/>
<g opacity="0.4">
<path opacity="0.4" d="M285.19 235.263L279.219 231.69V235.726L285.19 239.298V235.263Z" fill="white"/>
<path opacity="0.4" d="M295.162 249.518L279.219 239.959V243.994L295.162 253.57V249.518Z" fill="white"/>
<path opacity="0.4" d="M301.777 244.557L288.083 236.917V240.968L301.777 248.609V244.557Z" fill="white"/>
</g>
<g opacity="0.4">
<path opacity="0.4" d="M285.19 274.39L279.219 270.835V274.87L285.19 278.442V274.39Z" fill="white"/>
<path opacity="0.4" d="M295.162 288.662L279.219 279.104V283.139L295.162 292.697V288.662Z" fill="white"/>
<path opacity="0.4" d="M301.777 283.701L288.083 276.06V280.095L301.777 287.736V283.701Z" fill="white"/>
</g>
<g opacity="0.4">
<path opacity="0.4" d="M230.616 205.76L224.646 202.204V206.239L230.616 209.811V205.76Z" fill="white"/>
<path opacity="0.4" d="M240.588 220.032L224.646 210.473V214.508L240.588 224.067V220.032Z" fill="white"/>
<path opacity="0.4" d="M247.203 215.07L233.51 207.43V211.465L247.203 219.105V215.07Z" fill="white"/>
</g>
<g opacity="0.4">
<path opacity="0.4" d="M230.616 244.904L224.646 241.348V245.383L230.616 248.939V244.904Z" fill="white"/>
<path opacity="0.4" d="M240.588 259.176L224.646 249.617V253.652L240.588 263.211V259.176Z" fill="white"/>
<path opacity="0.4" d="M247.203 254.214L233.51 246.574V250.609L247.203 258.249V254.214Z" fill="white"/>
</g>
<g opacity="0.5">
<path opacity="0.5" d="M215.17 216.228C213.516 216.228 211.746 215.699 209.927 214.64C203.775 211.085 198.764 202.436 198.764 195.374C198.764 190.247 201.41 186.94 205.512 186.94C207.165 186.94 208.935 187.469 210.754 188.528C216.906 192.083 221.917 200.732 221.917 207.794C221.917 212.904 219.271 216.228 215.17 216.228ZM205.512 188.577C202.369 188.577 200.418 191.174 200.418 195.358C200.418 201.906 205.065 209.894 210.754 213.202C212.309 214.095 213.83 214.574 215.17 214.574C218.312 214.574 220.263 211.978 220.263 207.794C220.263 201.245 215.616 193.257 209.927 189.95C208.373 189.057 206.851 188.577 205.512 188.577Z" fill="white"/>
</g>
<g opacity="0.5">
<path opacity="0.5" d="M269.165 246.426C267.511 246.426 265.741 245.896 263.922 244.838C257.77 241.282 252.759 232.633 252.759 225.572C252.759 220.445 255.405 217.138 259.507 217.138C261.16 217.138 262.93 217.667 264.749 218.725C270.901 222.281 275.912 230.93 275.912 237.992C275.912 243.118 273.266 246.426 269.165 246.426ZM259.507 218.791C256.364 218.791 254.413 221.388 254.413 225.572C254.413 232.121 259.06 240.125 264.749 243.416C266.304 244.309 267.825 244.788 269.165 244.788C272.307 244.788 274.275 242.192 274.275 238.008C274.275 231.459 269.628 223.472 263.939 220.164C262.368 219.271 260.846 218.791 259.507 218.791Z" fill="white"/>
</g>
<g opacity="0.5">
<path opacity="0.5" d="M215.17 253.702C213.516 253.702 211.746 253.173 209.927 252.114C203.775 248.559 198.764 239.909 198.764 232.848C198.764 227.721 201.41 224.414 205.512 224.414C207.165 224.414 208.935 224.943 210.754 226.001C216.906 229.557 221.917 238.206 221.917 245.268C221.917 250.394 219.271 253.702 215.17 253.702ZM205.512 226.068C202.369 226.068 200.418 228.664 200.418 232.848C200.418 239.397 205.065 247.384 210.754 250.692C212.309 251.585 213.83 252.065 215.17 252.065C218.312 252.065 220.263 249.468 220.263 245.284C220.263 238.735 215.616 230.748 209.927 227.44C208.373 226.547 206.851 226.068 205.512 226.068Z" fill="white"/>
</g>
<g opacity="0.5">
<path opacity="0.5" d="M269.165 283.916C267.511 283.916 265.741 283.387 263.922 282.328C257.77 278.773 252.759 270.124 252.759 263.062C252.759 257.935 255.405 254.628 259.507 254.628C261.16 254.628 262.93 255.157 264.749 256.216C270.901 259.771 275.912 268.42 275.912 275.482C275.912 280.608 273.266 283.916 269.165 283.916ZM259.507 256.282C256.364 256.282 254.413 258.878 254.413 263.062C254.413 269.611 259.06 277.599 264.749 280.906C266.304 281.799 267.825 282.279 269.165 282.279C272.307 282.279 274.258 279.682 274.258 275.498C274.258 268.949 269.611 260.962 263.922 257.654C262.368 256.745 260.846 256.282 259.507 256.282Z" fill="white"/>
</g>
<path d="M263.261 240.654C263.178 240.505 263.128 240.356 263.128 240.207V238.702C262.235 238.09 261.458 237.396 260.83 236.619C260.185 235.841 259.705 235.081 259.374 234.303C259.044 233.543 258.862 232.815 258.845 232.137C258.845 232.021 258.878 231.939 258.961 231.889C259.044 231.839 259.143 231.856 259.242 231.922L260.929 232.898C261.078 232.98 261.193 233.08 261.276 233.195C261.359 233.311 261.442 233.46 261.508 233.642C261.64 234.204 261.938 234.783 262.384 235.362C262.831 235.941 263.426 236.47 264.203 236.9C265.063 237.396 265.708 237.611 266.155 237.528C266.601 237.445 266.816 237.115 266.816 236.536C266.816 236.156 266.701 235.759 266.486 235.378C266.254 234.998 265.923 234.568 265.46 234.121C264.997 233.658 264.336 233.047 263.459 232.269C261.987 231.029 260.912 229.871 260.234 228.813C259.556 227.755 259.209 226.613 259.209 225.39C259.209 224.282 259.556 223.537 260.267 223.174C260.962 222.81 261.938 222.892 263.145 223.422V221.95C263.145 221.784 263.195 221.685 263.277 221.652C263.36 221.603 263.476 221.619 263.591 221.702L264.749 222.363C264.881 222.446 264.997 222.545 265.08 222.694C265.162 222.826 265.196 222.975 265.196 223.141V224.662C266.006 225.257 266.7 225.935 267.279 226.696C267.858 227.457 268.305 228.201 268.602 228.929C268.9 229.656 269.065 230.301 269.098 230.847C269.098 230.979 269.065 231.062 268.983 231.112C268.916 231.161 268.817 231.145 268.701 231.079L266.932 230.053C266.667 229.904 266.485 229.673 266.386 229.359C266.304 228.863 266.072 228.333 265.642 227.788C265.229 227.242 264.699 226.779 264.088 226.432C263.41 226.035 262.864 225.869 262.467 225.952C262.07 226.018 261.871 226.349 261.871 226.928C261.871 227.308 261.971 227.688 262.169 228.052C262.368 228.416 262.665 228.829 263.095 229.276C263.525 229.722 264.137 230.301 264.931 230.979C266.039 231.905 266.915 232.732 267.577 233.476C268.222 234.204 268.718 234.932 269.032 235.659C269.346 236.387 269.495 237.164 269.495 238.008C269.495 239.248 269.098 240.025 268.321 240.356C267.544 240.67 266.485 240.538 265.179 239.926V241.431C265.179 241.596 265.146 241.696 265.063 241.729C264.981 241.778 264.881 241.762 264.732 241.679L263.575 241.018C263.459 240.902 263.36 240.786 263.261 240.654Z" fill="white"/>
<path d="M211.201 201.89V192.96C211.201 192.447 210.837 191.818 210.39 191.554C209.944 191.289 209.58 191.504 209.58 192.017V201.129C209.58 201.509 209.712 201.939 209.944 202.336L213.45 208.455C213.615 208.736 213.814 208.951 214.029 209.067C214.244 209.183 214.442 209.216 214.607 209.133C214.922 208.951 214.938 208.356 214.624 207.81L211.201 201.89ZM210.39 209.629C210.01 209.414 209.712 209.58 209.712 210.01C209.712 210.44 210.01 210.969 210.39 211.184C210.771 211.399 211.068 211.233 211.068 210.804C211.068 210.374 210.771 209.844 210.39 209.629ZM217.882 205.346C217.501 205.131 217.204 205.297 217.204 205.726C217.204 206.156 217.501 206.686 217.882 206.901C218.262 207.116 218.56 206.95 218.56 206.52C218.56 206.09 218.262 205.578 217.882 205.346ZM202.899 196.697C202.518 196.482 202.221 196.647 202.221 197.077C202.221 197.507 202.518 198.037 202.899 198.252C203.279 198.467 203.577 198.301 203.577 197.871C203.577 197.441 203.279 196.912 202.899 196.697Z" fill="white"/>
<path d="M171.577 345.948L177.448 349.339C179.449 350.496 180.92 351.869 181.83 353.473C182.756 355.077 183.203 356.979 183.203 359.212V360.353C183.203 361.808 182.988 362.883 182.591 363.577C182.177 364.256 181.549 364.553 180.705 364.47V364.553C182.64 366.422 183.6 368.969 183.6 372.16V374.591C183.6 376.791 183.103 378.164 182.095 378.742C181.086 379.321 179.631 379.04 177.696 377.932L171.577 374.393V345.948ZM177.001 360.65C177.778 361.097 178.357 361.213 178.754 360.965C179.151 360.733 179.333 360.072 179.333 358.98V357.392C179.333 356.367 179.167 355.524 178.853 354.879C178.539 354.234 178.026 353.721 177.348 353.324L175.48 352.249V359.757L177.001 360.65ZM177.712 373.864C178.39 374.261 178.903 374.343 179.234 374.112C179.564 373.88 179.73 373.252 179.73 372.227V369.746C179.73 368.439 179.531 367.431 179.151 366.703C178.754 365.975 178.126 365.347 177.216 364.834L175.48 363.826V372.557L177.712 373.864Z" fill="white"/>
<path d="M187.238 381.984C186.245 380.181 185.749 378.13 185.749 375.832V354.135L189.636 356.384V378.395C189.636 379.371 189.801 380.181 190.148 380.81C190.496 381.438 190.975 381.934 191.62 382.314C192.265 382.678 192.745 382.744 193.092 382.513C193.439 382.281 193.605 381.669 193.605 380.694V358.682L197.359 360.849V382.546C197.359 384.845 196.862 386.333 195.87 386.995C194.878 387.656 193.439 387.441 191.554 386.35C189.652 385.225 188.213 383.786 187.238 381.984Z" fill="white"/>
<path d="M203.692 380.81L198.979 361.759L203.114 364.156L205.776 376.13L205.842 376.163L208.505 367.249L212.292 369.432L207.579 383.042V395.148L203.692 392.899V380.81Z" fill="white"/>
<path d="M247.55 313.204L240.009 314.858L242.671 306.308L235.345 295.724L244.54 300.801L247.55 292.598L250.56 304.29L259.755 309.814L252.428 311.947L255.091 323.573L247.55 313.204Z" fill="url(#paint40_linear)"/>
<path d="M252.429 311.947L255.091 323.573L256.778 322.465L254.248 311.418L252.429 311.947Z" fill="url(#paint41_linear)"/>
<path d="M244.54 300.801L245.152 299.114L237.032 294.616L235.593 295.79L237.793 297.063L244.54 300.801Z" fill="url(#paint42_linear)"/>
<path d="M252.247 303.182L249.237 291.49L247.55 292.598L250.56 304.291L259.738 309.797L259.755 309.814L261.441 308.706L252.247 303.182Z" fill="url(#paint43_linear)"/>
<path d="M252.429 311.948L255.091 323.573L252.991 311.782L252.429 311.948Z" fill="white"/>
<path d="M244.54 300.801L244.722 300.288L235.593 295.79L237.793 297.063L244.54 300.801Z" fill="white"/>
<path d="M251.072 304.01L247.55 292.599L250.56 304.291L259.738 309.798L259.755 309.814L251.072 304.01Z" fill="white"/>
<path d="M300.437 343.055L292.896 344.725L295.542 336.175L288.232 325.575L297.41 330.668L300.437 322.449L303.447 334.141L312.625 339.665L305.315 341.798L307.961 353.424L300.437 343.055Z" fill="url(#paint44_linear)"/>
<path d="M305.315 341.798L307.961 353.424L309.648 352.332L307.134 341.269L305.315 341.798Z" fill="url(#paint45_linear)"/>
<path d="M297.41 330.668L298.039 328.981L289.919 324.483L288.48 325.657L290.663 326.93L297.41 330.668Z" fill="url(#paint46_linear)"/>
<path d="M305.133 333.05L302.124 321.358L300.437 322.449L303.446 334.141L312.625 339.665L314.312 338.557L305.133 333.05Z" fill="url(#paint47_linear)"/>
<path d="M305.315 341.798L307.961 353.424L305.861 341.649L305.315 341.798Z" fill="white"/>
<path d="M297.41 330.668L297.609 330.139L288.48 325.657L290.663 326.93L297.41 330.668Z" fill="white"/>
<path d="M303.959 333.876L300.437 322.449L303.447 334.141L312.625 339.665L303.959 333.876Z" fill="white"/>
<path d="M273.861 327.873L266.32 329.527L268.983 320.977L261.673 310.393L270.851 315.47L273.861 307.267L276.888 318.959L286.066 324.466L278.74 326.616L281.402 338.242L273.861 327.873Z" fill="url(#paint48_linear)"/>
<path d="M278.74 326.617L281.402 338.242L283.089 337.134L280.559 326.087L278.74 326.617Z" fill="url(#paint49_linear)"/>
<path d="M270.851 315.47L271.463 313.783L263.36 309.285L261.904 310.459L264.104 311.732L270.851 315.47Z" fill="url(#paint50_linear)"/>
<path d="M278.574 317.852L275.548 306.16L273.861 307.268L276.887 318.96L286.066 324.467L287.753 323.375L278.574 317.852Z" fill="url(#paint51_linear)"/>
<path d="M278.74 326.617L281.402 338.242L279.302 326.451L278.74 326.617Z" fill="white"/>
<path d="M270.851 315.47L271.033 314.957L261.905 310.459L264.104 311.733L270.851 315.47Z" fill="white"/>
<path d="M277.4 318.678L273.861 307.267L276.887 318.959L286.066 324.466L277.4 318.678Z" fill="white"/>
<path d="M220.991 298.006L213.45 299.677L216.112 291.127L208.786 280.526L217.965 285.62L220.991 277.401L224.001 289.093L233.179 294.616L225.869 296.766L228.532 308.375L220.991 298.006Z" fill="url(#paint52_linear)"/>
<path d="M225.869 296.766L228.532 308.376L230.219 307.284L227.689 296.221L225.869 296.766Z" fill="url(#paint53_linear)"/>
<path d="M217.965 285.62L218.593 283.933L210.473 279.435L209.034 280.609L211.217 281.882L217.965 285.62Z" fill="url(#paint54_linear)"/>
<path d="M225.687 288.001L222.678 276.309L220.991 277.401L224.001 289.093L233.179 294.616L234.866 293.508L225.687 288.001Z" fill="url(#paint55_linear)"/>
<path d="M225.869 296.766L228.532 308.375L226.415 296.601L225.869 296.766Z" fill="white"/>
<path d="M217.965 285.62L218.163 285.091L209.034 280.609L211.217 281.882L217.965 285.62Z" fill="white"/>
<path d="M224.513 288.828L220.991 277.401L224.001 289.093L233.179 294.616L224.513 288.828Z" fill="white"/>
<path d="M194.25 282.676L186.708 284.33L189.371 275.78L182.061 265.196L191.24 270.273L194.25 262.07L197.276 273.762L206.454 279.269L199.128 281.419L201.791 293.045L194.25 282.676Z" fill="url(#paint56_linear)"/>
<path d="M199.128 281.419L201.791 293.045L203.478 291.937L200.947 280.89L199.128 281.419Z" fill="url(#paint57_linear)"/>
<path d="M191.24 270.273L191.868 268.586L183.748 264.088L182.293 265.262L184.493 266.535L191.24 270.273Z" fill="url(#paint58_linear)"/>
<path d="M198.963 272.654L195.937 260.962L194.25 262.07L197.276 273.762L206.454 279.269L208.141 278.178L198.963 272.654Z" fill="url(#paint59_linear)"/>
<path d="M199.128 281.42L201.79 293.045L199.69 281.254L199.128 281.42Z" fill="white"/>
<path d="M191.24 270.273L191.438 269.76L182.293 265.262L184.492 266.535L191.24 270.273Z" fill="white"/>
<path d="M197.789 273.481L194.25 262.07L197.276 273.762L206.454 279.269L197.789 273.481Z" fill="white"/>
<path d="M243.465 101.144L259.093 110.173C259.689 110.52 260.168 110.239 260.168 109.561C260.168 108.883 259.689 108.04 259.093 107.709L243.465 98.6795C242.87 98.3322 242.391 98.6134 242.391 99.2914C242.391 99.9694 242.87 100.813 243.465 101.144ZM259.11 113.266L243.482 104.236C242.887 103.889 242.407 104.17 242.407 104.848C242.407 105.526 242.887 106.369 243.482 106.7L259.11 115.73C259.705 116.077 260.185 115.796 260.185 115.118C260.185 114.44 259.705 113.613 259.11 113.266ZM259.11 118.839L243.482 109.809C242.887 109.462 242.407 109.743 242.407 110.421C242.407 111.099 242.887 111.943 243.482 112.273L259.11 121.303C259.705 121.65 260.185 121.369 260.185 120.691C260.185 120.013 259.705 119.186 259.11 118.839Z" fill="white"/>
<path d="M147.697 47.1653C147.697 48.819 146.539 49.4805 145.1 48.6537C143.661 47.8268 142.504 45.8092 142.504 44.172C142.504 42.5182 143.661 41.8567 145.1 42.6836C146.539 43.5105 147.697 45.5281 147.697 47.1653Z" fill="white"/>
<path d="M139.858 42.6008C139.858 44.2546 138.7 44.9161 137.261 44.0892C135.823 43.2623 134.665 41.2448 134.665 39.6075C134.665 37.9538 135.823 37.2923 137.261 38.1192C138.684 38.946 139.858 40.9636 139.858 42.6008Z" fill="white"/>
<path d="M132.002 38.0529C132.002 39.7067 130.845 40.3682 129.406 39.5413C127.967 38.7144 126.81 36.6969 126.81 35.0596C126.81 33.4224 127.967 32.7444 129.406 33.5713C130.845 34.3816 132.002 36.3992 132.002 38.0529Z" fill="white"/>
<path d="M170.684 63.6366C171.246 64.2981 172.089 65.1249 172.966 65.6541C173.892 66.2164 174.388 66.0841 174.371 65.4226C174.371 64.7942 173.925 64.1657 172.85 63.0743C171.329 61.5528 170.32 59.9983 170.303 58.4934C170.27 56.7239 171.56 56.1781 173.71 57.5177C174.735 58.1626 175.479 58.8737 176.025 59.4856L175.595 61.0732C175.231 60.6598 174.586 59.9652 173.71 59.4195C172.817 58.8737 172.404 59.0557 172.404 59.5849C172.42 60.2464 172.933 60.8417 174.107 62.0655C175.694 63.7027 176.455 65.0919 176.455 66.5141C176.472 68.2009 175.347 68.9286 172.883 67.4567C171.858 66.8448 170.832 65.9187 170.303 65.2903L170.684 63.6366Z" fill="white"/>
<path d="M179.746 61.4704L179.763 65.3402L183.004 67.3412V63.5045L184.955 64.7283L184.939 74.5681L183.02 73.4105V69.2927L179.796 67.3082L179.812 71.4591L177.828 70.2684L177.745 60.197L179.746 61.4704Z" fill="white"/>
<path d="M194.216 75.2791C194.167 78.3881 192.53 79.2977 190.132 77.8589C187.668 76.3706 186.212 73.3277 186.229 70.5494C186.245 67.6057 187.866 66.3984 190.363 67.953C192.91 69.5571 194.249 72.6496 194.216 75.2791ZM188.23 71.7401C188.213 73.6419 188.974 75.4445 190.231 76.2052C191.488 76.9659 192.232 76.0233 192.248 74.1545C192.265 72.4181 191.57 70.4832 190.28 69.6894C189.007 68.8791 188.246 69.8382 188.23 71.7401Z" fill="white"/>
<path d="M195.49 71.4755C196.069 71.7235 196.863 72.137 197.971 72.8315C199.095 73.5261 199.872 74.2868 200.402 75.1303C200.898 75.9241 201.212 76.9163 201.195 77.8259C201.179 78.7354 200.898 79.3639 200.418 79.5954C199.79 79.8931 198.88 79.645 197.822 79C197.59 78.8512 197.375 78.7024 197.21 78.5866L197.144 81.9437L195.341 80.8688L195.49 71.4755ZM197.226 76.9328C197.375 77.0651 197.574 77.1974 197.838 77.3628C198.797 77.9582 199.393 77.7432 199.426 76.784C199.442 75.9075 198.946 75.0806 198.037 74.5184C197.673 74.2868 197.408 74.1711 197.276 74.138L197.226 76.9328Z" fill="white"/>
<path d="M202.403 75.7916C202.948 76.0232 203.726 76.4201 204.8 77.0981C205.875 77.7761 206.636 78.5038 207.149 79.3141C207.628 80.0914 207.926 81.0506 207.893 81.9436C207.86 82.8366 207.595 83.4485 207.116 83.68C206.504 83.9777 205.627 83.7462 204.585 83.1177C204.354 82.9854 204.155 82.8366 203.99 82.7043L203.907 85.9787L202.171 84.9369L202.403 75.7916ZM204.04 81.1167C204.189 81.249 204.37 81.3813 204.619 81.5301C205.545 82.0924 206.14 81.894 206.157 80.9513C206.19 80.1079 205.71 79.2976 204.834 78.7518C204.47 78.5369 204.238 78.4211 204.106 78.388L204.04 81.1167Z" fill="white"/>
<path d="M210.803 80.918L210.473 89.9474L208.769 88.9221L209.084 79.843L210.803 80.918Z" fill="white"/>
<path d="M211.912 90.8245L212.259 81.8446L214.227 83.0684L215.616 87.302C216.013 88.5092 216.393 89.8653 216.674 91.056L216.707 91.0725C216.658 89.8488 216.674 88.625 216.741 87.302L216.856 84.6891L218.361 85.6317L217.948 94.4297L216.244 93.4043L214.839 89.0715C214.442 87.8477 214.012 86.409 213.698 85.1356H213.665C213.665 86.3428 213.632 87.6162 213.565 89.0715L213.45 91.734L211.912 90.8245Z" fill="white"/>
<path d="M225.208 98.4318C224.712 98.3491 223.786 98.068 222.859 97.5223C221.586 96.745 220.676 95.8023 220.065 94.6282C219.453 93.4871 219.138 92.131 219.221 90.8576C219.37 87.947 221.189 87.3517 223.521 88.807C224.43 89.3693 225.109 90.0308 225.439 90.4442L225.026 91.8003C224.662 91.3538 224.182 90.8907 223.422 90.4111C222.099 89.5842 221.024 89.8985 220.941 91.7837C220.842 93.5698 221.702 95.1739 223.008 95.9677C223.372 96.1827 223.67 96.315 223.786 96.315L223.885 94.529L222.81 93.8675L222.892 92.346L225.489 93.9502L225.208 98.4318Z" fill="white"/>
<path d="M187.254 85.7142C187.238 88.7736 185.584 89.6997 183.153 88.3106C180.656 86.8883 179.151 83.9281 179.134 81.1829C179.118 78.2888 180.755 77.0816 183.269 78.57C185.882 80.1079 187.271 83.1178 187.254 85.7142ZM181.185 82.3405C181.185 84.2092 181.979 85.9622 183.252 86.6899C184.526 87.4175 185.27 86.4749 185.27 84.6392C185.27 82.9359 184.559 81.0506 183.236 80.2733C181.946 79.5126 181.185 80.4718 181.185 82.3405Z" fill="white"/>
<path d="M188.445 91.155L188.511 81.8113L190.677 83.1012L192.331 87.5167C192.794 88.7736 193.257 90.1958 193.604 91.4196L193.638 91.4361C193.538 90.1627 193.522 88.9059 193.538 87.5167L193.571 84.8046L195.242 85.7803L195.093 94.9255L193.208 93.8506L191.537 89.3359C191.074 88.079 190.545 86.5575 190.165 85.2345H190.132C190.165 86.4914 190.181 87.8144 190.165 89.3359L190.148 92.1142L188.445 91.155Z" fill="white"/>
<path d="M196.813 86.7065L198.615 87.7649L198.466 95.1076L201.542 96.8606L201.493 98.5474L196.647 95.8022L196.813 86.7065Z" fill="white"/>
<path d="M204.47 91.2375L204.222 100.102L202.502 99.1259L202.733 90.2122L204.47 91.2375Z" fill="white"/>
<path d="M205.693 100.929L205.958 92.1143L207.943 93.2884L209.381 97.4228C209.795 98.597 210.192 99.9365 210.473 101.094L210.506 101.111C210.44 99.9034 210.456 98.7127 210.506 97.4063L210.605 94.8429L212.127 95.7525L211.779 104.385L210.043 103.409L208.588 99.1758C208.174 97.9851 207.728 96.5794 207.397 95.3225H207.364C207.364 96.5132 207.347 97.7535 207.298 99.1923L207.215 101.805L205.693 100.929Z" fill="white"/>
<path d="M217.617 104.038L214.987 102.533L214.905 104.55L217.815 106.221L217.733 107.775L213.185 105.195L213.549 96.5959L217.997 99.2089L217.915 100.796L215.12 99.1593L215.037 100.945L217.667 102.467L217.617 104.038Z" fill="white"/>
<defs>
<linearGradient id="paint0_linear" x1="82.5822" y1="14.6563" x2="239.078" y2="285.715" gradientUnits="userSpaceOnUse">
<stop offset="0.0556" stop-color="#200041"/>
<stop offset="0.2576" stop-color="#210243"/>
<stop offset="0.3572" stop-color="#25084B"/>
<stop offset="0.4341" stop-color="#2C1358"/>
<stop offset="0.4697" stop-color="#311B61"/>
<stop offset="0.482" stop-color="#351F65"/>
<stop offset="0.4954" stop-color="#422C73"/>
<stop offset="0.5093" stop-color="#584188"/>
<stop offset="0.5235" stop-color="#765FA7"/>
<stop offset="0.5303" stop-color="#8770B8"/>
<stop offset="0.5366" stop-color="#7E67AE"/>
<stop offset="0.5617" stop-color="#5C468D"/>
<stop offset="0.5857" stop-color="#442E75"/>
<stop offset="0.6078" stop-color="#362066"/>
<stop offset="0.6263" stop-color="#311B61"/>
<stop offset="0.6724" stop-color="#2A1155"/>
<stop offset="0.7491" stop-color="#230446"/>
<stop offset="0.8131" stop-color="#200041"/>
<stop offset="1" stop-color="#200041"/>
</linearGradient>
<radialGradient id="paint1_radial" cx="0" cy="0" r="1" gradientUnits="userSpaceOnUse" gradientTransform="translate(325.78 124.782) scale(293.68)">
<stop stop-color="#393B89"/>
<stop offset="0.1439" stop-color="#373984"/>
<stop offset="0.3232" stop-color="#303274"/>
<stop offset="0.5214" stop-color="#26275B"/>
<stop offset="0.7332" stop-color="#171837"/>
<stop offset="0.9536" stop-color="#04050A"/>
<stop offset="1"/>
</radialGradient>
<radialGradient id="paint2_radial" cx="0" cy="0" r="1" gradientUnits="userSpaceOnUse" gradientTransform="translate(276.648 103.8) scale(173.019)">
<stop stop-color="#5B64AB"/>
<stop offset="1" stop-color="#10054D"/>
</radialGradient>
<linearGradient id="paint3_linear" x1="110.703" y1="234.719" x2="279.449" y2="234.719" gradientUnits="userSpaceOnUse">
<stop stop-color="#5B64AB"/>
<stop offset="1" stop-color="#10054D"/>
</linearGradient>
<linearGradient id="paint4_linear" x1="296.834" y1="449.736" x2="53.9379" y2="-63.5074" gradientUnits="userSpaceOnUse">
<stop stop-color="#311B61"/>
<stop offset="0.2031" stop-color="#290F52"/>
<stop offset="0.4949" stop-color="#200041"/>
<stop offset="1" stop-color="#0F001F"/>
</linearGradient>
<linearGradient id="paint5_linear" x1="118.806" y1="234.719" x2="271.345" y2="234.719" gradientUnits="userSpaceOnUse">
<stop stop-color="#311B61"/>
<stop offset="0.2031" stop-color="#290F52"/>
<stop offset="0.4949" stop-color="#200041"/>
<stop offset="1" stop-color="#0F001F"/>
</linearGradient>
<linearGradient id="paint6_linear" x1="293.229" y1="165.101" x2="306.875" y2="188.735" gradientUnits="userSpaceOnUse">
<stop stop-color="#311B61"/>
<stop offset="0.2031" stop-color="#290F52"/>
<stop offset="0.4949" stop-color="#200041"/>
<stop offset="1" stop-color="#0F001F"/>
</linearGradient>
<linearGradient id="paint7_linear" x1="293.428" y1="185.099" x2="274.609" y2="184.289" gradientUnits="userSpaceOnUse">
<stop stop-color="#393B89"/>
<stop offset="1" stop-color="#42509D"/>
</linearGradient>
<radialGradient id="paint8_radial" cx="0" cy="0" r="1" gradientUnits="userSpaceOnUse" gradientTransform="translate(283.965 177.069) scale(11.0527)">
<stop stop-color="#711F56"/>
<stop offset="0.1614" stop-color="#6C1E52"/>
<stop offset="0.3626" stop-color="#5C1946"/>
<stop offset="0.5849" stop-color="#431233"/>
<stop offset="0.8208" stop-color="#200918"/>
<stop offset="1"/>
</radialGradient>
<linearGradient id="paint9_linear" x1="70.4137" y1="424.582" x2="117.983" y2="506.967" gradientUnits="userSpaceOnUse">
<stop stop-color="#9F79C8"/>
<stop offset="0.1409" stop-color="#A27DCA"/>
<stop offset="0.2725" stop-color="#AC88CF"/>
<stop offset="0.4" stop-color="#BC9BD7"/>
<stop offset="0.5202" stop-color="#D1B4E3"/>
<stop offset="0.6493" stop-color="#DBC4E9"/>
<stop offset="0.8997" stop-color="#F4EDF8"/>
<stop offset="1" stop-color="white"/>
</linearGradient>
<linearGradient id="paint10_linear" x1="44.7511" y1="424.1" x2="69.4973" y2="506.136" gradientUnits="userSpaceOnUse">
<stop stop-color="#9F79C8"/>
<stop offset="0.1409" stop-color="#A27DCA"/>
<stop offset="0.2725" stop-color="#AC88CF"/>
<stop offset="0.4" stop-color="#BC9BD7"/>
<stop offset="0.5202" stop-color="#D1B4E3"/>
<stop offset="0.6493" stop-color="#DBC4E9"/>
<stop offset="0.8997" stop-color="#F4EDF8"/>
<stop offset="1" stop-color="white"/>
</linearGradient>
<linearGradient id="paint11_linear" x1="58.614" y1="479.813" x2="50.6113" y2="405.974" gradientUnits="userSpaceOnUse">
<stop offset="0.0416667" stop-color="#6E41D2"/>
<stop offset="0.255208" stop-color="#6E41D2"/>
<stop offset="0.6184" stop-color="#4C9BE8"/>
<stop offset="1" stop-color="#2AF6FF"/>
</linearGradient>
<linearGradient id="paint12_linear" x1="149.846" y1="279.942" x2="208.432" y2="391.655" gradientUnits="userSpaceOnUse">
<stop offset="0.0101" stop-color="#9F19AB"/>
<stop offset="0.4293" stop-color="#5F27BD"/>
<stop offset="0.904" stop-color="#3D065F"/>
</linearGradient>
<linearGradient id="paint13_linear" x1="149.747" y1="281.155" x2="207.497" y2="391.275" gradientUnits="userSpaceOnUse">
<stop offset="0.0101" stop-color="#9F19AB"/>
<stop offset="0.4293" stop-color="#5F27BD"/>
<stop offset="0.904" stop-color="#3D065F"/>
</linearGradient>
<linearGradient id="paint14_linear" x1="149.649" y1="282.368" x2="206.564" y2="390.893" gradientUnits="userSpaceOnUse">
<stop offset="0.0101" stop-color="#9F19AB"/>
<stop offset="0.4293" stop-color="#5F27BD"/>
<stop offset="0.904" stop-color="#3D065F"/>
</linearGradient>
<linearGradient id="paint15_linear" x1="149.554" y1="283.58" x2="205.633" y2="390.511" gradientUnits="userSpaceOnUse">
<stop offset="0.0101" stop-color="#9F19AB"/>
<stop offset="0.4293" stop-color="#5F27BD"/>
<stop offset="0.904" stop-color="#3D065F"/>
</linearGradient>
<linearGradient id="paint16_linear" x1="149.46" y1="284.789" x2="204.703" y2="390.128" gradientUnits="userSpaceOnUse">
<stop offset="0.0101" stop-color="#9F19AB"/>
<stop offset="0.4293" stop-color="#5F27BD"/>
<stop offset="0.904" stop-color="#3D065F"/>
</linearGradient>
<linearGradient id="paint17_linear" x1="149.368" y1="285.999" x2="203.776" y2="389.745" gradientUnits="userSpaceOnUse">
<stop offset="0.0101" stop-color="#9F19AB"/>
<stop offset="0.4293" stop-color="#5F27BD"/>
<stop offset="0.904" stop-color="#3D065F"/>
</linearGradient>
<linearGradient id="paint18_linear" x1="149.279" y1="287.206" x2="202.852" y2="389.36" gradientUnits="userSpaceOnUse">
<stop offset="0.0101" stop-color="#9F19AB"/>
<stop offset="0.4293" stop-color="#5F27BD"/>
<stop offset="0.904" stop-color="#3D065F"/>
</linearGradient>
<linearGradient id="paint19_linear" x1="149.191" y1="288.413" x2="201.93" y2="388.974" gradientUnits="userSpaceOnUse">
<stop offset="0.0101" stop-color="#9F19AB"/>
<stop offset="0.4293" stop-color="#5F27BD"/>
<stop offset="0.904" stop-color="#3D065F"/>
</linearGradient>
<linearGradient id="paint20_linear" x1="149.107" y1="289.617" x2="201.01" y2="388.588" gradientUnits="userSpaceOnUse">
<stop offset="0.0101" stop-color="#9F19AB"/>
<stop offset="0.4293" stop-color="#5F27BD"/>
<stop offset="0.904" stop-color="#3D065F"/>
</linearGradient>
<linearGradient id="paint21_linear" x1="149.024" y1="290.82" x2="200.094" y2="388.2" gradientUnits="userSpaceOnUse">
<stop offset="0.0101" stop-color="#9F19AB"/>
<stop offset="0.4293" stop-color="#5F27BD"/>
<stop offset="0.904" stop-color="#3D065F"/>
</linearGradient>
<linearGradient id="paint22_linear" x1="148.945" y1="292.022" x2="199.18" y2="387.811" gradientUnits="userSpaceOnUse">
<stop offset="0.0101" stop-color="#9F19AB"/>
<stop offset="0.4293" stop-color="#5F27BD"/>
<stop offset="0.904" stop-color="#3D065F"/>
</linearGradient>
<linearGradient id="paint23_linear" x1="244.744" y1="418.247" x2="136.54" y2="322.409" gradientUnits="userSpaceOnUse">
<stop offset="0.0354" stop-color="#1D1D1B"/>
<stop offset="0.3125" stop-color="#5CB29C"/>
</linearGradient>
<radialGradient id="paint24_radial" cx="0" cy="0" r="1" gradientUnits="userSpaceOnUse" gradientTransform="translate(187.156 355.169) scale(83.7709)">
<stop offset="0.104167" stop-color="#5CB29C"/>
<stop offset="0.744792"/>
<stop offset="1"/>
<stop offset="1"/>
</radialGradient>
<linearGradient id="paint25_linear" x1="132.897" y1="240.07" x2="344.366" y2="130.047" gradientUnits="userSpaceOnUse">
<stop offset="0.0303" stop-color="#7C1DC9"/>
<stop offset="0.2138" stop-color="#6E41D2"/>
<stop offset="0.6184" stop-color="#4C9BE8"/>
<stop offset="1" stop-color="#2AF6FF"/>
</linearGradient>
<linearGradient id="paint26_linear" x1="63.4735" y1="202.99" x2="281.217" y2="89.7024" gradientUnits="userSpaceOnUse">
<stop offset="0.0303" stop-color="#7C1DC9"/>
<stop offset="0.2138" stop-color="#6E41D2"/>
<stop offset="0.6184" stop-color="#4C9BE8"/>
<stop offset="1" stop-color="#2AF6FF"/>
</linearGradient>
<linearGradient id="paint27_linear" x1="19.2267" y1="219.83" x2="454.566" y2="-6.66775" gradientUnits="userSpaceOnUse">
<stop offset="0.0303" stop-color="#7C1DC9"/>
<stop offset="0.2138" stop-color="#6E41D2"/>
<stop offset="0.6184" stop-color="#4C9BE8"/>
<stop offset="1" stop-color="#2AF6FF"/>
</linearGradient>
<linearGradient id="paint28_linear" x1="162.156" y1="37.6719" x2="280.867" y2="264.032" gradientUnits="userSpaceOnUse">
<stop offset="0.0101" stop-color="#9F19AB"/>
<stop offset="0.4293" stop-color="#5F27BD"/>
<stop offset="0.904" stop-color="#3D065F"/>
</linearGradient>
<linearGradient id="paint29_linear" x1="161.902" y1="38.4722" x2="280.047" y2="263.752" gradientUnits="userSpaceOnUse">
<stop offset="0.0101" stop-color="#9F19AB"/>
<stop offset="0.4293" stop-color="#5F27BD"/>
<stop offset="0.904" stop-color="#3D065F"/>
</linearGradient>
<linearGradient id="paint30_linear" x1="161.651" y1="39.2711" x2="279.229" y2="263.47" gradientUnits="userSpaceOnUse">
<stop offset="0.0101" stop-color="#9F19AB"/>
<stop offset="0.4293" stop-color="#5F27BD"/>
<stop offset="0.904" stop-color="#3D065F"/>
</linearGradient>
<linearGradient id="paint31_linear" x1="161.402" y1="40.0691" x2="278.413" y2="263.188" gradientUnits="userSpaceOnUse">
<stop offset="0.0101" stop-color="#9F19AB"/>
<stop offset="0.4293" stop-color="#5F27BD"/>
<stop offset="0.904" stop-color="#3D065F"/>
</linearGradient>
<linearGradient id="paint32_linear" x1="161.155" y1="40.8647" x2="277.6" y2="262.905" gradientUnits="userSpaceOnUse">
<stop offset="0.0101" stop-color="#9F19AB"/>
<stop offset="0.4293" stop-color="#5F27BD"/>
<stop offset="0.904" stop-color="#3D065F"/>
</linearGradient>
<linearGradient id="paint33_linear" x1="160.911" y1="41.6593" x2="276.791" y2="262.621" gradientUnits="userSpaceOnUse">
<stop offset="0.0101" stop-color="#9F19AB"/>
<stop offset="0.4293" stop-color="#5F27BD"/>
<stop offset="0.904" stop-color="#3D065F"/>
</linearGradient>
<linearGradient id="paint34_linear" x1="160.67" y1="42.4517" x2="275.985" y2="262.335" gradientUnits="userSpaceOnUse">
<stop offset="0.0101" stop-color="#9F19AB"/>
<stop offset="0.4293" stop-color="#5F27BD"/>
<stop offset="0.904" stop-color="#3D065F"/>
</linearGradient>
<linearGradient id="paint35_linear" x1="160.433" y1="43.2425" x2="275.182" y2="262.048" gradientUnits="userSpaceOnUse">
<stop offset="0.0101" stop-color="#9F19AB"/>
<stop offset="0.4293" stop-color="#5F27BD"/>
<stop offset="0.904" stop-color="#3D065F"/>
</linearGradient>
<linearGradient id="paint36_linear" x1="160.198" y1="44.0308" x2="274.383" y2="261.759" gradientUnits="userSpaceOnUse">
<stop offset="0.0101" stop-color="#9F19AB"/>
<stop offset="0.4293" stop-color="#5F27BD"/>
<stop offset="0.904" stop-color="#3D065F"/>
</linearGradient>
<linearGradient id="paint37_linear" x1="159.967" y1="44.8174" x2="273.587" y2="261.469" gradientUnits="userSpaceOnUse">
<stop offset="0.0101" stop-color="#9F19AB"/>
<stop offset="0.4293" stop-color="#5F27BD"/>
<stop offset="0.904" stop-color="#3D065F"/>
</linearGradient>
<linearGradient id="paint38_linear" x1="159.741" y1="45.6018" x2="272.796" y2="261.178" gradientUnits="userSpaceOnUse">
<stop offset="0.0101" stop-color="#9F19AB"/>
<stop offset="0.4293" stop-color="#5F27BD"/>
<stop offset="0.904" stop-color="#3D065F"/>
</linearGradient>
<linearGradient id="paint39_linear" x1="324.337" y1="367.479" x2="143.219" y2="13.6388" gradientUnits="userSpaceOnUse">
<stop offset="0.161458" stop-color="#5CB29C"/>
<stop offset="0.557292" stop-color="#4C9BE8"/>
<stop offset="0.963542" stop-color="#2AF6FF"/>
</linearGradient>
<linearGradient id="paint40_linear" x1="235.352" y1="308.082" x2="259.749" y2="308.082" gradientUnits="userSpaceOnUse">
<stop offset="0.0354" stop-color="#FFBA78"/>
<stop offset="0.395" stop-color="#FFC987"/>
<stop offset="1" stop-color="#FEECA8"/>
</linearGradient>
<linearGradient id="paint41_linear" x1="255.441" y1="317.494" x2="259.788" y2="317.494" gradientUnits="userSpaceOnUse">
<stop offset="0.0354" stop-color="#FFBA78"/>
<stop offset="0.395" stop-color="#FFC987"/>
<stop offset="1" stop-color="#FEECA8"/>
</linearGradient>
<linearGradient id="paint42_linear" x1="235.594" y1="297.714" x2="245.156" y2="297.714" gradientUnits="userSpaceOnUse">
<stop offset="0.0354" stop-color="#FFBA78"/>
<stop offset="0.395" stop-color="#FFC987"/>
<stop offset="1" stop-color="#FEECA8"/>
</linearGradient>
<linearGradient id="paint43_linear" x1="247.55" y1="300.649" x2="261.437" y2="300.649" gradientUnits="userSpaceOnUse">
<stop offset="0.0354" stop-color="#FFBA78"/>
<stop offset="0.395" stop-color="#FFC987"/>
<stop offset="1" stop-color="#FEECA8"/>
</linearGradient>
<linearGradient id="paint44_linear" x1="288.231" y1="337.94" x2="312.628" y2="337.94" gradientUnits="userSpaceOnUse">
<stop offset="0.0354" stop-color="#FFBA78"/>
<stop offset="0.395" stop-color="#FFC987"/>
<stop offset="1" stop-color="#FEECA8"/>
</linearGradient>
<linearGradient id="paint45_linear" x1="308.847" y1="347.351" x2="313.194" y2="347.351" gradientUnits="userSpaceOnUse">
<stop offset="0.0354" stop-color="#FFBA78"/>
<stop offset="0.395" stop-color="#FFC987"/>
<stop offset="1" stop-color="#FEECA8"/>
</linearGradient>
<linearGradient id="paint46_linear" x1="288.473" y1="327.571" x2="298.034" y2="327.571" gradientUnits="userSpaceOnUse">
<stop offset="0.0354" stop-color="#FFBA78"/>
<stop offset="0.395" stop-color="#FFC987"/>
<stop offset="1" stop-color="#FEECA8"/>
</linearGradient>
<linearGradient id="paint47_linear" x1="300.429" y1="330.507" x2="314.315" y2="330.507" gradientUnits="userSpaceOnUse">
<stop offset="0.0354" stop-color="#FFBA78"/>
<stop offset="0.395" stop-color="#FFC987"/>
<stop offset="1" stop-color="#FEECA8"/>
</linearGradient>
<linearGradient id="paint48_linear" x1="261.667" y1="322.75" x2="286.064" y2="322.75" gradientUnits="userSpaceOnUse">
<stop offset="0.0354" stop-color="#FFBA78"/>
<stop offset="0.395" stop-color="#FFC987"/>
<stop offset="1" stop-color="#FEECA8"/>
</linearGradient>
<linearGradient id="paint49_linear" x1="281.756" y1="332.162" x2="286.103" y2="332.162" gradientUnits="userSpaceOnUse">
<stop offset="0.0354" stop-color="#FFBA78"/>
<stop offset="0.395" stop-color="#FFC987"/>
<stop offset="1" stop-color="#FEECA8"/>
</linearGradient>
<linearGradient id="paint50_linear" x1="261.909" y1="312.381" x2="271.47" y2="312.381" gradientUnits="userSpaceOnUse">
<stop offset="0.0354" stop-color="#FFBA78"/>
<stop offset="0.395" stop-color="#FFC987"/>
<stop offset="1" stop-color="#FEECA8"/>
</linearGradient>
<linearGradient id="paint51_linear" x1="273.865" y1="315.317" x2="287.752" y2="315.317" gradientUnits="userSpaceOnUse">
<stop offset="0.0354" stop-color="#FFBA78"/>
<stop offset="0.395" stop-color="#FFC987"/>
<stop offset="1" stop-color="#FEECA8"/>
</linearGradient>
<linearGradient id="paint52_linear" x1="208.788" y1="292.893" x2="233.185" y2="292.893" gradientUnits="userSpaceOnUse">
<stop offset="0.0354" stop-color="#FFBA78"/>
<stop offset="0.395" stop-color="#FFC987"/>
<stop offset="1" stop-color="#FEECA8"/>
</linearGradient>
<linearGradient id="paint53_linear" x1="228.35" y1="302.305" x2="232.698" y2="302.305" gradientUnits="userSpaceOnUse">
<stop offset="0.0354" stop-color="#FFBA78"/>
<stop offset="0.395" stop-color="#FFC987"/>
<stop offset="1" stop-color="#FEECA8"/>
</linearGradient>
<linearGradient id="paint54_linear" x1="209.03" y1="282.524" x2="218.592" y2="282.524" gradientUnits="userSpaceOnUse">
<stop offset="0.0354" stop-color="#FFBA78"/>
<stop offset="0.395" stop-color="#FFC987"/>
<stop offset="1" stop-color="#FEECA8"/>
</linearGradient>
<linearGradient id="paint55_linear" x1="220.986" y1="285.46" x2="234.873" y2="285.46" gradientUnits="userSpaceOnUse">
<stop offset="0.0354" stop-color="#FFBA78"/>
<stop offset="0.395" stop-color="#FFC987"/>
<stop offset="1" stop-color="#FEECA8"/>
</linearGradient>
<linearGradient id="paint56_linear" x1="182.057" y1="277.552" x2="206.454" y2="277.552" gradientUnits="userSpaceOnUse">
<stop offset="0.0354" stop-color="#FFBA78"/>
<stop offset="0.395" stop-color="#FFC987"/>
<stop offset="1" stop-color="#FEECA8"/>
</linearGradient>
<linearGradient id="paint57_linear" x1="201.619" y1="286.963" x2="205.967" y2="286.963" gradientUnits="userSpaceOnUse">
<stop offset="0.0354" stop-color="#FFBA78"/>
<stop offset="0.395" stop-color="#FFC987"/>
<stop offset="1" stop-color="#FEECA8"/>
</linearGradient>
<linearGradient id="paint58_linear" x1="182.3" y1="267.183" x2="191.861" y2="267.183" gradientUnits="userSpaceOnUse">
<stop offset="0.0354" stop-color="#FFBA78"/>
<stop offset="0.395" stop-color="#FFC987"/>
<stop offset="1" stop-color="#FEECA8"/>
</linearGradient>
<linearGradient id="paint59_linear" x1="194.256" y1="270.119" x2="208.142" y2="270.119" gradientUnits="userSpaceOnUse">
<stop offset="0.0354" stop-color="#FFBA78"/>
<stop offset="0.395" stop-color="#FFC987"/>
<stop offset="1" stop-color="#FEECA8"/>
</linearGradient>
</defs>
</svg>
