<svg width="430" height="432" viewBox="0 0 430 432" fill="none" xmlns="http://www.w3.org/2000/svg">
<path d="M399.49 247.151C349.398 214.563 436.148 161.999 416.945 109.984C397.742 57.9683 334.34 111.457 300.229 137.077C266.118 162.698 226.139 116.851 199.645 115.627C173.15 114.403 188.058 134.43 176.097 160.376C164.135 186.321 76.0615 164.771 40.7271 189.842C5.41759 214.913 61.678 268.252 66.4225 300.065C71.1671 331.879 10.3369 367.862 49.2922 415.083L242.895 414.159C262.373 409.265 275.083 405.394 275.083 405.394C456.375 341.518 449.583 279.739 399.49 247.151Z" fill="#EAEDF8"/>
<path d="M104.249 105.652L61.5731 62.9761C60.749 62.1521 60.749 60.8036 61.5731 59.9545C62.3971 59.1305 63.7455 59.1305 64.5946 59.9545L107.271 102.631C108.095 103.455 108.095 104.803 107.271 105.652C106.422 106.476 105.073 106.476 104.249 105.652Z" fill="#283477"/>
<path d="M98.5305 84.7011L82.499 68.6695C81.6749 67.8455 81.6749 66.4971 82.499 65.648C83.323 64.824 84.6715 64.824 85.5205 65.648L101.552 81.6796C102.376 82.5036 102.376 83.8521 101.552 84.7011C100.703 85.5252 99.3546 85.5252 98.5305 84.7011Z" fill="#283477"/>
<path d="M104.249 120.885L46.3405 62.9761C45.5165 62.1521 45.5165 60.8036 46.3405 59.9545C47.1646 59.1305 48.5131 59.1305 49.3621 59.9545L107.271 117.863C108.095 118.687 108.095 120.036 107.271 120.885C106.422 121.709 105.073 121.709 104.249 120.885Z" fill="#283477"/>
<path d="M101.053 132.946L34.2544 66.1474C33.4303 65.3234 33.4303 63.9749 34.2544 63.1259C35.0784 62.3019 36.4269 62.3019 37.2759 63.1259L104.074 129.924C104.898 130.748 104.898 132.097 104.074 132.946C103.25 133.77 101.902 133.77 101.053 132.946Z" fill="#283477"/>
<path d="M95.8587 142.959L24.2659 71.3663C23.4418 70.5422 23.4418 69.1938 24.2659 68.3448C25.09 67.5207 26.4384 67.5207 27.2874 68.3448L98.8802 139.938C99.7043 140.762 99.7043 142.11 98.8802 142.959C98.0312 143.783 96.6827 143.783 95.8587 142.959Z" fill="#283477"/>
<path d="M88.9916 151.35L15.8506 78.2086C15.0265 77.3845 15.0265 76.036 15.8506 75.187C16.6746 74.3629 18.0231 74.3629 18.8721 75.187L92.0131 148.328C92.8372 149.152 92.8372 150.5 92.0131 151.35C91.1891 152.174 89.8406 152.174 88.9916 151.35Z" fill="#283477"/>
<path d="M80.6012 158.192L9.00842 86.5989C8.18437 85.7749 8.18437 84.4264 9.00842 83.5774C9.83247 82.7534 11.1809 82.7534 12.0299 83.5774L83.6227 155.17C84.4468 155.994 84.4468 157.343 83.6227 158.192C82.7987 159.041 81.4502 159.041 80.6012 158.192Z" fill="#283477"/>
<path d="M70.5877 163.411L3.78937 96.6124C2.96531 95.7884 2.96531 94.4398 3.78937 93.5908C4.61342 92.7668 5.96187 92.7668 6.81089 93.5908L73.6092 160.389C74.4332 161.213 74.4332 162.562 73.6092 163.411C72.7851 164.235 71.4117 164.235 70.5877 163.411Z" fill="#283477"/>
<path d="M58.5266 166.582L0.61804 108.674C-0.206013 107.85 -0.206013 106.501 0.61804 105.652C1.44209 104.828 2.79054 104.828 3.63957 105.652L61.5481 163.561C62.3721 164.385 62.3721 165.733 61.5481 166.582C60.724 167.431 59.3756 167.431 58.5266 166.582Z" fill="#283477"/>
<path d="M43.294 166.582L0.61804 123.906C-0.206013 123.082 -0.206013 121.734 0.61804 120.885C1.44209 120.061 2.79054 120.061 3.63957 120.885L46.3405 163.561C47.1646 164.385 47.1646 165.733 46.3405 166.582C45.4915 167.431 44.1431 167.431 43.294 166.582Z" fill="#283477"/>
<path d="M22.3681 160.864L6.33649 144.832C5.51243 144.008 5.51243 142.66 6.33649 141.811C7.16054 140.987 8.50899 140.987 9.35801 141.811L25.3896 157.842C26.2137 158.666 26.2137 160.015 25.3896 160.864C24.5406 161.713 23.1921 161.713 22.3681 160.864Z" fill="#283477"/>
<path d="M378.734 422.538C378.734 428.306 257.873 436.847 169.799 427.133C80.6761 417.294 31.0581 425.46 31.0581 419.691C31.0581 413.923 112.939 409.278 202.611 409.278C292.283 409.278 378.734 416.77 378.734 422.538Z" fill="#656BA3"/>
<path d="M102.951 419.691H123.876L110.492 411.426L111.94 404.858C108.894 404.858 108.145 406.931 105.048 406.931C104.199 411.75 102.951 419.691 102.951 419.691Z" fill="#432C47"/>
<path d="M181.311 140.762L197.217 132.421L196.743 137.915L193.721 152.998L182.209 149.851L181.311 140.762Z" fill="#FBD3C1"/>
<path d="M214.148 137.016C209.978 138.714 195.344 138.289 195.344 138.289C195.344 138.289 184.132 147.129 184.607 149.152C185.081 151.175 185.78 150.65 187.129 152.373C188.452 154.096 191.649 155.769 191.649 155.769C191.649 155.769 194.071 158.167 196.968 157.492C199.864 156.818 206.881 149.501 210.053 148.777C210.702 148.627 213.524 147.978 217.619 147.029L214.148 137.016Z" fill="#E9BFAC"/>
<path d="M197.217 132.421C197.217 132.421 205.982 139.313 205.183 140.612C204.384 141.91 195.569 138.289 195.569 138.289L197.217 132.421Z" fill="#FBD3C1"/>
<path d="M210.227 149.477C210.227 149.477 201.612 145.431 200.713 146.88C199.814 148.328 204.384 150.85 204.384 150.85C204.384 150.85 199.49 148.603 198.666 149.227C197.842 149.851 202.087 152.973 202.087 152.973C202.087 152.973 197.342 150.351 196.119 151.075C194.895 151.824 199.14 156.394 199.14 156.394C199.14 156.394 210.727 153.822 210.227 149.477Z" fill="#FBD3C1"/>
<path d="M282.444 169.903L267.836 172.051L276.052 134.219L283.968 138.289L282.444 169.903Z" fill="#231941"/>
<path d="M282.769 70.0428C282.769 70.0428 256.474 108.049 251.03 113.493C245.587 118.937 210.227 136.591 210.227 136.591L216.245 149.252L258.672 127.577L284.492 103.904L282.769 70.0428Z" fill="#5CB29C"/>
<path d="M314.682 406.806L314.458 420.79L316.006 420.84L318.004 404.883L314.682 406.806Z" fill="#1E1D23"/>
<path d="M303.92 283.897C303.92 283.897 305.593 305.747 308.265 312.29C310.937 318.832 306.167 405.158 303.895 412.1C303.395 413.648 302.721 415.022 301.997 416.221C299.525 420.466 298.951 421.34 302.272 421.34C306.542 421.365 310.288 420.541 311.112 418.793C312.535 415.771 313.808 405.358 316.73 405.383C316.73 405.383 318.728 401.512 318.228 399.465C317.479 396.393 315.382 397.967 315.407 393.696C315.432 389.426 329.59 324.501 327.368 315.037C325.145 305.598 323.572 304.449 323.622 293.212C323.647 281.975 303.92 283.897 303.92 283.897Z" fill="#FBD3C1"/>
<path d="M294.256 260.999C294.256 260.999 278.324 291.389 279.323 300.378C280.347 309.368 283.718 316.635 280.821 328.921C277.925 341.207 255.076 385.755 254.527 393.896C254.302 397.317 255.351 397.642 255.351 397.642C255.301 403.56 253.453 409.903 252.229 411.126C250.656 412.699 248.883 420.49 247.36 420.49C245.861 420.49 233.201 421.839 233.201 421.839C232.876 418.942 236.747 421.265 239.019 415.272C241.292 409.278 242.665 400.289 245.562 388.153C248.458 376.016 260.295 320.655 260.345 307.92C260.395 295.184 259.221 295.109 261.194 286.719C263.167 278.329 270.558 262.622 270.558 262.622L294.256 260.999Z" fill="#FBD3C1"/>
<path d="M279.348 300.378C278.324 291.389 294.281 260.999 294.281 260.999L270.583 262.622C270.583 262.622 263.192 278.329 261.219 286.719C259.771 292.862 260.02 294.535 260.22 300.029C264.74 301.003 271.807 302.426 279.847 303.725C279.648 302.651 279.473 301.527 279.348 300.378Z" fill="#E9BFAC"/>
<path d="M323.622 293.212C323.647 281.975 303.92 283.897 303.92 283.897C303.92 283.897 304.994 297.831 306.767 306.771C313.434 307.096 319.752 306.971 324.971 306.097C324.122 302.801 323.597 299.679 323.622 293.212Z" fill="#E9BFAC"/>
<path d="M277.625 156.843C277.625 156.843 274.853 199.644 272.756 209.832C270.658 220.021 258.672 292.288 258.672 292.288C258.672 292.288 312.085 296.783 324.996 292.288C324.996 292.288 326.444 199.569 323.397 187.658C320.351 175.747 307.091 154.046 307.091 154.046L277.625 156.843Z" fill="#5CB29C"/>
<path opacity="0.53" d="M277.625 156.843C277.625 156.843 277.475 159.041 277.25 162.537C281.271 166.532 286.839 172.975 289.062 179.942C291.584 187.883 311.062 186.709 322.698 185.261C318.728 173.05 307.091 154.046 307.091 154.046L277.625 156.843Z" fill="#1B1230"/>
<path d="M305.243 66.4469L289.037 65.2733L283.293 76.4854L306.342 78.9077L305.243 66.4469Z" fill="#231941"/>
<path d="M282.769 70.0428C282.769 70.0428 290.161 64.4243 315.157 70.0678C315.831 70.2176 316.455 97.3115 316.455 97.3115C316.455 97.3115 304.844 142.734 307.066 154.071C307.066 154.071 293.806 165.258 274.004 155.52C274.004 155.52 276.576 119.861 274.778 111.92C272.98 103.979 269.384 96.7621 274.479 88.5216C279.598 80.2561 282.769 70.0428 282.769 70.0428Z" fill="#FFF7D0"/>
<path d="M287.364 107.001V159.44C299.55 160.464 307.066 154.121 307.066 154.121C304.869 142.784 316.455 97.3616 316.455 97.3616C316.455 97.3616 315.831 70.2177 315.157 70.0679C311.186 69.169 307.665 68.5696 304.544 68.1701L287.364 107.001Z" fill="#D1CCB2"/>
<path d="M305.243 66.4468L291.085 106.95V174.173L322.349 175.671L311.461 161.413L307.765 143.533L316.455 97.3114L315.157 70.0427L305.243 66.4468Z" fill="#5CB29C"/>
<path d="M289.037 65.2733L277.4 103.929L274.379 172.051H267.836L274.853 136.042L270.758 95.4636L282.469 69.2437L289.037 65.2733Z" fill="#4B8475"/>
<path d="M305.243 66.4468L291.085 106.95L309.164 83.3774L312.185 67.5206L305.243 66.4468Z" fill="#4B8475"/>
<path d="M289.037 65.2733L277.4 103.929L278.449 76.2607L283.293 66.4469L289.037 65.2733Z" fill="#4B8475"/>
<path d="M316.306 165.134C316.705 164.734 320.251 159.515 321.025 160.264C321.774 161.013 317.879 165.833 317.879 165.833C317.879 165.833 322.399 161.263 323.298 162.162C324.196 163.061 317.254 169.229 316.53 169.229C315.806 169.204 316.306 165.134 316.306 165.134Z" fill="#FBD3C1"/>
<path d="M310.188 159.965C310.188 159.965 308.265 162.886 309.688 164.285C311.086 165.683 310.337 167.156 311.286 168.105C312.235 169.054 316.505 169.204 316.505 169.204C316.505 169.204 316.805 165.084 318.927 160.364C319.327 159.49 320.576 157.767 322.349 155.52C320.451 154.271 318.478 153.147 316.455 152.149C312.909 156.718 310.262 159.84 310.188 159.965Z" fill="#E9BFAC"/>
<path d="M315.157 70.0428C315.157 70.0428 312.685 89.7452 315.157 95.189C317.579 100.483 331.688 106.576 334.11 117.289C335.908 125.279 321.4 141.511 313.708 151.474C315.631 153.397 321.475 157.218 323.372 158.466C331.188 148.528 350.891 125.105 351.39 119.636C351.99 112.894 325.645 69.3436 315.157 70.0428Z" fill="#5CB29C"/>
<path d="M315.157 70.0428C314.782 74.6376 314.483 79.0326 314.408 83.7272C314.333 92.0176 314.832 94.6147 316.655 96.6873C320.9 101.607 332.262 107.6 334.11 117.264C331.463 107.7 320.476 102.381 316.056 97.2117C314.383 95.2889 314.058 93.2163 313.858 90.6193C313.384 84.5013 314.208 76.2108 315.157 70.0428Z" fill="#54597E"/>
<path d="M315.706 395.894C314.383 403.71 310.013 417.169 306.991 418.443C301.997 419.492 301.972 418.967 301.997 416.245C299.525 420.49 296.703 422.663 300.024 422.663C304.294 422.688 310.962 422.963 311.786 421.215C313.209 418.193 314.033 406.756 316.955 406.756L316.006 420.84L317.554 420.89C317.554 420.89 319.926 401.487 319.427 399.564C318.753 396.892 316.53 396.368 315.706 395.894Z" fill="#3B3745"/>
<path d="M237.471 418.018C234 420.166 229.68 420.216 229.955 422.538C229.955 422.538 246.361 421.889 247.859 421.889C249.357 421.889 250.656 412.674 252.254 411.101C253.827 409.528 252.828 421.889 252.828 421.889H254.452C254.452 421.889 255.575 409.153 257.099 404.209C258.297 400.264 256.624 398.616 255.401 397.617C250.406 407.031 249.882 420.266 237.471 418.018Z" fill="#3B3745"/>
<path d="M162.907 219.846C162.907 219.846 169.874 240.972 171.122 243.144C172.371 245.317 172.396 255.23 170.398 256.579C168.4 257.927 169.849 252.558 169.324 249.712C168.8 246.865 166.203 243.094 166.203 243.094C166.203 243.094 168.35 246.041 169.05 249.587C169.574 252.308 168.9 255.78 167.951 256.329C165.803 257.577 167.551 254.256 166.827 250.286C166.103 246.34 163.931 244.468 163.931 244.468C163.931 244.468 165.728 251.834 163.831 252.908C161.933 253.957 155.34 224.166 155.34 224.166L162.907 219.846Z" fill="#FBD3C1"/>
<path d="M138.185 75.1121C138.185 75.1121 149.547 91.793 151.12 111.745C151.769 120.036 151.195 161.188 155.216 178.319C160.41 200.493 167.651 221.694 167.651 221.694L150.821 231.882L137.586 179.068L133.99 141.436L138.185 75.1121Z" fill="#393B8A"/>
<path d="M124.751 248.763L101.602 411.076L112.589 409.228L131.443 321.229C131.443 321.229 143.879 239.573 143.879 210.082L124.751 248.763Z" fill="#1E1E1C"/>
<path d="M64.5696 420.84H85.945L72.5604 412.575L74.0087 406.007C70.9622 406.007 70.2131 408.08 67.1167 408.08C66.2427 412.899 64.5696 420.84 64.5696 420.84Z" fill="#432C47"/>
<path d="M108.769 62.3766L107.945 75.137L138.185 71.691L131.118 63.0259L108.769 62.3766Z" fill="#395967"/>
<path d="M148.099 160.289C148.024 116.989 141.381 73.9135 131.917 68.4448C131.917 68.4448 120.93 67.6956 115.261 67.4958C106.821 67.2211 100.254 71.4663 93.2367 95.3638C88.8168 110.422 88.1925 144.008 88.6669 175.672C88.8667 189.706 90.1902 203.789 90.4899 213.728C114.337 213.728 124.626 214.752 147.749 214.752C149.222 171.901 148.124 173.174 148.099 160.289Z" fill="#D4E8D6"/>
<path d="M131.917 68.4447C131.917 68.4447 144.728 74.1631 148.623 112.644C152.544 151.125 157.937 229.66 157.937 229.66H140.108C140.108 229.66 138.185 117.438 138.185 109.747C138.185 102.056 131.917 68.4447 131.917 68.4447Z" fill="url(#paint0_linear)"/>
<path d="M100.279 122.957C100.279 122.957 100.254 122.932 100.254 122.907C100.553 122.907 100.528 122.907 100.279 122.957Z" fill="#EE7576"/>
<path d="M139.434 186.409L94.2355 187.533L90.4898 211.955L89.0165 315.86C89.0165 315.86 67.1417 389.076 62.7467 413.399C62.7467 413.399 75.2324 412.624 74.5332 412.624L111.316 325.749L127.922 246.39L141.531 215.526L139.434 186.409Z" fill="#1E1E1C"/>
<path opacity="0.57" d="M131.118 234.504C130.843 220.146 130.169 203.115 129.37 186.659L94.2355 187.533L90.4898 211.955L90.2151 231.607L131.118 234.504Z" fill="#272943"/>
<path d="M94.2605 187.508L93.1118 194.775H140.058L139.434 186.409L94.2605 187.508Z" fill="#3C1C36"/>
<path d="M138.834 186.984H126.873V193.626H138.834V186.984Z" fill="#A080B9"/>
<path opacity="0.53" d="M138.834 186.984H126.873V187.608C129.17 187.533 135.189 187.633 136.287 190.305C136.837 191.653 137.161 192.752 137.361 193.626H138.834V186.984Z" fill="#AA94C2"/>
<path d="M127.947 246.415L108.045 324.65L74.5581 412.649L111.341 325.774L127.947 246.415Z" fill="#75567B"/>
<path d="M120.455 119.711C120.53 120.235 106.397 68.7693 106.397 68.7693C106.397 68.7693 101.652 70.0678 95.3592 73.4389L86.2447 102.306C86.2447 102.306 82.474 154.995 82.474 159.165C82.474 161.413 77.9542 195.074 73.759 225.714L125.35 229.66C124.576 186.934 120.455 119.711 120.455 119.711Z" fill="#393B8A"/>
<path opacity="0.57" d="M121.429 136.467C121.429 136.467 89.491 99.2594 86.1199 103.979C85.8202 108.249 84.9712 120.061 84.1971 131.672C92.2628 152.024 118.333 185.261 124.176 192.577C123.327 171.576 122.203 150.526 121.429 136.467Z" fill="#272943"/>
<path d="M120.455 119.711L125.35 229.66C125.35 229.66 123.477 121.059 120.455 119.711Z" fill="#714A7B"/>
<path d="M115.661 52.0386C115.137 51.7139 108.644 35.5575 108.644 35.5575C108.644 35.5575 104.299 23.4214 107.121 21.3738C109.918 19.3261 116.56 12.2093 122.403 12.0594C128.222 11.9346 132.142 13.6826 132.666 14.0072C133.191 14.3318 136.962 20.7245 136.962 20.7245C136.962 20.7245 135.214 18.577 134.29 26.5429C133.391 34.5087 115.661 52.0386 115.661 52.0386Z" fill="#381A3F"/>
<path d="M130.369 51.3143C129.67 53.387 129.97 68.12 129.42 71.8158C128.871 75.4866 112.165 81.1551 111.84 67.8204C111.516 54.4857 112.839 38.8287 112.839 38.8287L130.369 51.3143Z" fill="#FBD3C1"/>
<path d="M130.369 51.3144L124.551 47.1691L112.839 38.8537C112.839 38.8537 112.839 38.8537 112.839 38.8787C112.839 38.8787 112.839 38.8786 112.839 38.9036C112.839 38.9536 112.814 39.0534 112.814 39.2033C112.764 39.6777 112.689 40.6517 112.614 42.0001C112.589 42.2748 112.564 42.5495 112.564 42.8491C112.564 42.8741 112.564 42.899 112.564 42.899C112.49 43.8729 112.44 44.9717 112.365 46.1953C112.365 46.2702 112.365 46.3451 112.365 46.395C112.34 46.6947 112.34 46.9944 112.315 47.294C112.315 47.4438 112.29 47.6187 112.29 47.7685C112.29 47.7935 112.29 47.7934 112.29 47.8184C112.29 47.8683 112.29 47.9433 112.29 47.9932C112.29 48.0182 112.29 48.0432 112.29 48.0681C112.29 48.168 112.29 48.2679 112.265 48.3928C114.437 55.5346 122.678 63.3006 129.795 64.1996C129.82 63.7002 129.845 63.2007 129.87 62.7013C129.92 57.732 129.994 52.488 130.369 51.3144Z" fill="#E9BFAC"/>
<path d="M112.19 26.6426C110.042 31.9615 109.942 41.7004 115.037 49.0919C120.131 56.4585 127.198 60.254 132.242 56.5333C137.286 52.8126 138.734 29.4894 135.089 23.4963C131.418 17.5032 115.436 18.527 112.19 26.6426Z" fill="#FBD3C1"/>
<path d="M112.19 49.017C112.19 49.017 111.066 41.4007 108.12 39.5279C105.198 37.68 103.874 36.5313 103.35 33.8344C102.826 31.1375 93.0619 29.3396 94.66 24.9196C96.2582 20.4997 103.899 18.4272 107.795 10.711C111.69 3.01984 115.886 -1.25029 124.925 1.5465C133.99 4.34329 135.238 9.88692 135.238 9.88692C135.238 9.88692 139.234 9.18775 141.681 13.9823C144.128 18.7767 142.38 21.4736 140.807 23.7211C140.807 23.7211 141.157 17.4033 138.984 17.8528C136.812 18.3023 139.009 25.2443 139.009 25.2443C139.009 25.2443 135.763 22.5724 132.292 18.4771C128.821 14.3568 129.67 19.1762 130.694 24.3953C131.717 29.6143 124.026 24.6949 120.605 20.9243C117.184 17.1536 112.29 20.6745 110.517 26.0184C108.719 31.3622 116.41 39.7776 112.19 49.017Z" fill="#653870"/>
<path d="M113.863 35.0079C113.863 35.0079 110.667 29.5642 109.019 31.9365C107.345 34.3088 108.719 41.4006 112.24 41.4506C115.761 41.5005 113.863 35.0079 113.863 35.0079Z" fill="#FBD3C1"/>
<path d="M112.065 35.4076C112.065 35.4076 112.19 32.2362 110.467 33.285C108.744 34.3338 110.492 39.403 112.065 39.3031C113.638 39.2032 112.065 35.4076 112.065 35.4076Z" fill="#E9BFAC"/>
<path d="M298.651 8.66348C299.65 9.58742 309.289 8.18905 317.429 16.954C328.217 28.5407 326.918 55.6345 326.918 55.6345C326.918 55.6345 315.481 58.2315 310.962 58.4313C306.442 58.6061 297.252 57.3076 292.333 56.5835C287.314 55.8343 284.617 27.6417 287.988 20.1752C291.359 12.6838 298.651 8.66348 298.651 8.66348Z" fill="#2F172C"/>
<path d="M298.651 8.66346C298.651 8.66346 287.913 8.03918 285.241 14.9812C282.569 21.9232 283.693 44.0977 279.972 46.3951C279.972 46.3951 282.769 48.1681 285.141 48.0682C285.141 48.0682 286.69 50.815 282.969 54.8354C282.969 54.8354 287.564 56.5585 292.308 56.5585C292.633 56.5585 296.129 57.5323 296.428 54.5857C296.803 51.0897 294.031 43.3736 294.381 40.0024C295.954 25.7189 298.651 8.66346 298.651 8.66346Z" fill="#462241"/>
<path d="M298.451 9.93695C297.427 9.93695 296.478 10.0368 295.629 10.2616C295.629 10.2616 286.415 14.1072 286.015 20.8994C285.591 27.6666 286.54 30.3136 285.791 34.6835C284.617 41.5756 288.987 54.386 296.503 54.2361C296.678 50.6153 294.081 43.2737 294.431 40.0025C295.704 28.0412 297.802 14.1571 298.451 9.93695Z" fill="#341930"/>
<path d="M293.956 51.4144C293.956 51.4144 292.233 64.4993 290.435 67.9454C288.637 71.3914 285.766 86.4491 288.288 86.4491C290.81 86.4491 302.496 74.7376 303.271 69.993C304.02 65.2485 307.69 45.671 307.69 45.671L293.956 51.4144Z" fill="#FBD3C1"/>
<path d="M294.206 49.9411C294.106 49.991 293.831 52.6879 293.806 52.8128C293.382 55.7344 293.282 55.5346 293.382 55.9342C294.356 58.9807 298.301 60.9035 304.095 55.7094C304.269 55.5346 306.192 53.7617 306.217 53.5869C307.041 49.1669 307.69 45.671 307.69 45.671C307.69 45.671 294.306 49.8911 294.206 49.9411Z" fill="#E9BFAC"/>
<path d="M296.411 10.6563C296.411 10.6563 287.721 14.3521 287.321 20.8196C286.922 27.3122 287.821 29.8342 287.121 34.0294C286.422 38.2246 288.22 49.4617 294.813 52.2834C301.405 55.1302 310.17 44.2677 311.693 39.3733C313.216 34.5039 313.766 27.512 312.093 19.8957C310.445 12.2794 301.255 9.3328 296.411 10.6563Z" fill="#FBD3C1"/>
<path d="M306.991 46.57C309.389 43.923 311.211 40.9264 311.861 38.9287C313.384 34.0593 313.933 27.0674 312.26 19.4511C310.587 11.8099 301.423 8.86325 296.578 10.2117C296.578 10.2117 287.888 13.9075 287.489 20.3751C287.364 22.5476 287.364 24.2706 287.414 25.7689L295.604 25.4941C295.604 25.4941 295.105 18.5272 296.728 16.7792L297.003 25.1446L302.621 25.1945C302.621 25.1945 304.669 21.5237 304.544 18.3274C304.544 18.3274 304.744 22.7973 303.595 25.2195C303.595 25.2195 308.165 24.9947 308.265 27.367C308.34 29.3148 307.665 41.4508 307.316 44.6721C307.216 45.3214 307.116 45.9706 306.991 46.57Z" fill="#9D6951"/>
<path d="M323.747 21.4738C317.18 7.93932 305.268 5.94161 298.651 8.66348C294.431 8.88822 289.636 10.6362 287.539 14.1821C284.242 19.7008 286.889 24.9947 286.889 24.9947L294.705 24.9198C294.705 24.9198 295.005 16.904 296.653 15.131L297.028 24.8199L302.571 24.5952C302.571 24.5952 304.369 19.6758 304.244 16.4795C304.244 16.4795 305.318 22.0981 304.194 24.5203C304.194 24.5203 308.14 24.9698 308.24 27.3171C308.315 29.2648 307.641 41.4009 307.291 44.6222C306.642 50.6902 303.296 53.9615 303.246 54.0613C303.246 54.0613 316.281 56.3587 318.978 53.4371L317.604 57.5074C317.604 57.5074 324.921 56.6583 326.918 55.6095C328.941 54.5857 327.543 29.2648 323.747 21.4738Z" fill="#4C2A54"/>
<path d="M287.539 14.1821C284.242 19.7008 286.889 24.9947 286.889 24.9947L294.705 24.9198C294.705 24.9198 295.005 16.904 296.653 15.131L297.028 24.8199L302.571 24.5952C302.571 24.5952 304.369 19.6758 304.244 16.4795C304.244 16.4795 305.318 22.0981 304.194 24.5203C304.194 24.5203 308.14 24.9697 308.24 27.3171C308.315 29.2648 307.641 41.4009 307.291 44.6222C307.266 44.9718 307.216 45.2964 307.141 45.646C314.433 38.3544 313.184 20.8495 311.236 14.6816C309.289 8.48868 298.651 8.63847 298.651 8.63847C294.456 8.86321 289.661 10.6362 287.539 14.1821Z" fill="#653870"/>
<path d="M298.676 9.21287C308.539 8.68847 315.506 10.9109 318.977 20.2002C322.349 29.14 325.695 42.999 322.573 52.0137L319.352 50.7901C322.349 43.5984 320.551 31.6121 318.528 24.0208C315.981 14.5317 312.71 9.31276 298.676 9.21287Z" fill="#653870"/>
<path d="M296.978 9.71347C293.607 10.7123 289.911 12.4104 288.413 15.5568C287.014 18.4784 287.663 21.8496 288.288 24.971H289.112C287.539 18.3786 286.715 13.1845 296.978 9.71347Z" fill="#363A68"/>
<path d="M297.327 9.96198C290.385 12.9336 290.66 18.3024 292.358 24.9198H293.182C291.01 18.4023 290.485 13.1333 297.327 9.96198Z" fill="#363A68"/>
<path d="M298.601 9.66229C300.798 15.0062 300.349 19.4011 299 24.745L299.8 24.72C300.798 19.3512 300.998 14.8064 298.601 9.66229Z" fill="#363A68"/>
<path d="M131.118 63.0259L138.285 117.638L140.657 90.6942L138.185 87.6976V71.691L131.118 63.0259Z" fill="#1E1E1C"/>
<path d="M111.815 61.0032L120.331 73.7136L116.21 81.5297L103.6 66.3721L108.769 62.3766L111.815 61.0032Z" fill="#E6F2E7"/>
<path d="M131.118 63.0259L127.547 73.0644L131.118 78.7579L132.866 69.094L131.118 63.0259Z" fill="#F4F9F5"/>
<path d="M120.455 119.711L108.769 62.3766L96.6827 71.7659L107.246 91.3934L106.471 97.5363L120.455 119.711Z" fill="#1E1E1C"/>
<path d="M127.547 73.0643L124.676 75.3867L120.306 73.7386L117.958 78.2085C117.958 78.2085 127.547 78.7329 129.72 76.5354L127.547 73.0643Z" fill="#A4C1AD"/>
<path d="M120.705 73.7137L127.323 73.2393L127.098 79.0326L121.854 79.2824L120.705 73.7137Z" fill="#6EA4C2"/>
<path d="M121.854 79.2822L127.098 79.0325L137.261 175.672L132.841 182.564L124.601 176.995L121.854 79.2822Z" fill="#393B8A"/>
<path d="M174.344 141.96L181.785 140.537L182.684 151.474L174.344 156.394V141.96Z" fill="#D4E8D6"/>
<path d="M178.614 141.136L174.344 141.96V156.394L180.586 152.723L178.614 141.136Z" fill="#9EBFA8"/>
<path d="M95.3592 73.414C95.3592 73.414 84.197 81.5047 85.5455 104.503C86.4944 120.51 125.35 169.204 125.35 169.204L179.413 159.465L177.964 140.886L138.659 142.684L95.3592 73.414Z" fill="#393B8A"/>
<path d="M139.009 142.06C124.101 118.038 111.041 97.0618 95.3593 73.414C110.117 98.5102 123.152 119.211 138.335 143.359C156.839 142.31 162.682 142.035 177.964 140.911C171.422 141.036 145.252 141.785 139.009 142.06Z" fill="#714A7B"/>
<path d="M193.197 170.952C192.822 170.952 192.498 170.677 192.473 170.278C192.448 169.878 192.747 169.529 193.122 169.504C222.963 166.982 227.233 151.449 227.283 151.3C227.383 150.925 227.782 150.675 228.157 150.775C228.556 150.875 228.781 151.275 228.681 151.649C228.506 152.323 224.211 168.33 193.247 170.952C193.247 170.952 193.222 170.952 193.197 170.952Z" fill="#59307E"/>
<path d="M217.619 170.952C217.344 170.952 217.07 170.777 216.945 170.503C216.795 170.128 216.97 169.703 217.344 169.554C235.973 161.812 236.697 149.352 236.697 149.227C236.722 148.827 237.072 148.528 237.446 148.528C237.846 148.553 238.17 148.877 238.145 149.277C238.12 149.826 237.446 162.761 217.894 170.877C217.819 170.927 217.719 170.952 217.619 170.952Z" fill="#59307E"/>
<path d="M342.276 37.4553C341.876 37.4553 341.552 37.1307 341.552 36.7311C341.552 15.98 333.561 2.82011 333.486 2.67028C333.286 2.32068 333.386 1.87113 333.711 1.67136C334.06 1.47159 334.51 1.57147 334.709 1.8961C334.784 2.02095 343 15.5305 343 36.7061C343 37.1306 342.675 37.4553 342.276 37.4553Z" fill="#59307E"/>
<path d="M88.5671 43.4983C88.3174 43.4983 88.0676 43.3735 87.9428 43.1488C77.7045 25.4191 89.0915 1.4217 89.5909 0.397877C89.7657 0.0482786 90.1902 -0.101562 90.5648 0.0732378C90.9144 0.248037 91.0642 0.67251 90.8894 1.04708C90.7645 1.29679 79.3277 25.3692 89.1914 42.4246C89.3911 42.7742 89.2663 43.2237 88.9167 43.4234C88.8168 43.4734 88.6919 43.4983 88.5671 43.4983Z" fill="#59307E"/>
<defs>
<linearGradient id="paint0_linear" x1="131.93" y1="149.051" x2="157.955" y2="149.051" gradientUnits="userSpaceOnUse">
<stop stop-color="#2A1E4D"/>
<stop offset="1" stop-color="#33245D"/>
</linearGradient>
</defs>
</svg>
