<svg width="56" height="56" viewBox="0 0 56 56" fill="none" xmlns="http://www.w3.org/2000/svg">
<path d="M28 0C12.5562 0 0 12.5557 0 28C0 43.4432 12.5562 56 28 56C43.4432 56 56 43.4432 56 28C56 12.5557 43.4432 0 28 0Z" fill="#1DA1F2"/>
<path d="M38.2865 22.7162C38.2865 22.9518 38.2865 23.1875 38.2865 23.3893C38.2865 30.3555 32.97 38.3985 23.2772 38.3985C20.282 38.3985 17.5224 37.5235 15.1667 36.043C15.5706 36.0768 16.0081 36.1107 16.4119 36.1107C18.8686 36.1107 21.1571 35.2695 22.9744 33.8555C20.6522 33.8217 18.7003 32.2735 18.0609 30.1875C18.3974 30.2552 18.7003 30.289 19.0706 30.289C19.5417 30.289 20.0128 30.2213 20.4503 30.086C18.0272 29.6158 16.2099 27.4948 16.2099 24.9375C16.2099 24.9037 16.2099 24.9037 16.2099 24.8698C16.9167 25.2735 17.7244 25.5092 18.5994 25.543C17.186 24.6015 16.2436 22.9857 16.2436 21.1342C16.2436 20.1588 16.5128 19.25 16.9503 18.4765C19.5417 21.6732 23.4456 23.7592 27.8204 23.9948C27.72 23.625 27.6862 23.1875 27.6862 22.7838C27.6862 19.8555 30.0417 17.5 32.97 17.5C34.4844 17.5 35.8633 18.1393 36.806 19.1485C38.0182 18.914 39.1277 18.4765 40.1719 17.8698C39.7682 19.1158 38.9259 20.125 37.849 20.7982C38.9259 20.664 39.9362 20.3945 40.8777 19.957C40.2057 21.0338 39.3307 21.9765 38.2865 22.7162Z" fill="white"/>
</svg>
