<svg width="56" height="56" viewBox="0 0 56 56" fill="none" xmlns="http://www.w3.org/2000/svg">
<path d="M28 0C12.5562 0 0 12.5557 0 28C0 43.4432 12.5562 56 28 56C43.4432 56 56 43.4432 56 28C56 12.5557 43.4432 0 28 0Z" fill="#EA4335"/>
<path d="M14.009 27.5079C13.722 19.9526 20.3405 12.9689 27.9044 12.8791C31.759 12.5501 35.5099 14.0469 38.4265 16.4888C37.2307 17.8048 36.0127 19.1056 34.7119 20.3225C32.144 18.7626 29.0512 17.5738 26.0494 18.6296C21.2084 20.0074 18.2764 25.7241 20.0681 30.4608C21.5519 35.4075 27.5683 38.1211 32.284 36.0433C34.7259 35.1695 36.3347 32.9166 37.0417 30.4958C34.2429 30.4398 31.444 30.4748 28.6464 30.3978C28.6394 28.7329 28.6323 27.0739 28.6393 25.4091C33.306 25.4021 37.9797 25.3881 42.6522 25.4301C42.9392 29.5099 42.3384 33.8756 39.6854 37.1493C36.0547 41.823 29.3452 43.1938 23.8876 41.3609C18.0952 39.4581 13.883 33.6224 14.009 27.5079Z" fill="white"/>
</svg>
