<svg width="56" height="56" viewBox="0 0 56 56" fill="none" xmlns="http://www.w3.org/2000/svg">
<path d="M28 0C12.544 0 0 12.544 0 28C0 43.456 12.544 56 28 56C43.456 56 56 43.456 56 28C56 12.544 43.456 0 28 0Z" fill="#262626"/>
<path d="M22.9754 27.4622C22.9754 24.9842 24.9842 22.974 27.4622 22.974C29.9402 22.974 31.9503 24.9842 31.9503 27.4622C31.9503 29.9402 29.9402 31.9503 27.4622 31.9503C24.9842 31.9503 22.9754 29.9402 22.9754 27.4622ZM20.5494 27.4622C20.5494 31.2795 23.6443 34.3747 27.4622 34.3747C31.2795 34.3747 34.3747 31.2795 34.3747 27.4622C34.3747 23.6437 31.2795 20.5497 27.4622 20.5497C23.6443 20.5497 20.5494 23.6437 20.5494 27.4622ZM33.033 20.2755C33.033 20.5952 33.1275 20.9067 33.3048 21.1727C33.4822 21.4387 33.7342 21.6463 34.0293 21.7688C34.3245 21.8902 34.65 21.9228 34.9627 21.861C35.2765 21.798 35.5647 21.6452 35.7898 21.4188C36.0162 21.1925 36.1702 20.9055 36.2332 20.5917C36.295 20.279 36.2635 19.9535 36.141 19.6583C36.0185 19.3632 35.812 19.1112 35.546 18.9327C35.2812 18.7553 34.9685 18.6608 34.6488 18.6608C34.2195 18.6608 33.8088 18.8312 33.5067 19.1333C33.2033 19.4367 33.033 19.8473 33.033 20.2755ZM22.0234 38.4195C20.7109 38.36 19.9975 38.1418 19.5235 37.9563C18.8949 37.7125 18.4465 37.4208 17.9749 36.9495C17.5035 36.4793 17.2116 36.0313 16.968 35.4025C16.7832 34.9288 16.5646 34.2148 16.505 32.9023C16.4396 31.4837 16.4267 31.0567 16.4267 27.4622C16.4267 23.8677 16.4408 23.4418 16.505 22.022C16.5647 20.7095 16.7849 19.9967 16.968 19.5218C17.2126 18.893 17.5041 18.445 17.9749 17.9737C18.4458 17.5023 18.8938 17.2107 19.5235 16.9668C19.9972 16.7813 20.7109 16.5632 22.0234 16.5037C23.4424 16.4383 23.8687 16.4255 27.4622 16.4255C31.0555 16.4255 31.4825 16.4395 32.9023 16.5037C34.2148 16.5632 34.9265 16.7837 35.4025 16.9668C36.0313 17.2107 36.4793 17.5023 36.9507 17.9737C37.422 18.4438 37.7125 18.893 37.9575 19.5218C38.143 19.9955 38.3612 20.7095 38.4207 22.022C38.486 23.4418 38.4988 23.8677 38.4988 27.4622C38.4988 31.0567 38.486 31.4825 38.4207 32.9023C38.3612 34.2148 38.1418 34.9288 37.9575 35.4025C37.7125 36.0313 37.422 36.4793 36.9507 36.9495C36.4805 37.4197 36.0313 37.7125 35.4025 37.9563C34.9288 38.1418 34.2148 38.36 32.9023 38.4195C31.4837 38.4848 31.0567 38.4977 27.4622 38.4977C23.8671 38.4977 23.4419 38.4848 22.0234 38.4195ZM21.912 14.0817C20.4789 14.147 19.4995 14.3745 18.6443 14.707C17.7586 15.05 17.0088 15.512 16.2596 16.2598C15.5104 17.0077 15.0505 17.759 14.7068 18.6445C14.374 19.4997 14.1468 20.4785 14.0816 21.9123C14.0152 23.3473 14 23.8058 14 27.4622C14 31.1185 14.0152 31.577 14.0816 33.012C14.1468 34.4458 14.374 35.4247 14.7068 36.2798C15.0505 37.1653 15.5105 37.9167 16.2596 38.6645C17.0087 39.4123 17.7586 39.8731 18.6443 40.2173C19.5012 40.5498 20.4789 40.7773 21.912 40.8427C23.348 40.908 23.8062 40.9243 27.4622 40.9243C31.1185 40.9243 31.577 40.9092 33.012 40.8427C34.4458 40.7773 35.4247 40.5498 36.2798 40.2173C37.1653 39.8731 37.9155 39.4123 38.6645 38.6645C39.4135 37.9167 39.8732 37.1653 40.2173 36.2798C40.5498 35.4247 40.7785 34.4458 40.8427 33.012C40.908 31.5758 40.9232 31.1185 40.9232 27.4622C40.9232 23.8058 40.908 23.3473 40.8427 21.9123C40.7773 20.4785 40.5498 19.4997 40.2173 18.6445C39.8732 17.759 39.4123 17.0088 38.6645 16.2598C37.9167 15.5108 37.1653 15.05 36.281 14.707C35.4247 14.3745 34.4458 14.1458 33.0132 14.0817C31.5782 14.0163 31.1185 14 27.4633 14C23.8072 14 23.348 14.0152 21.912 14.0817Z" fill="white"/>
</svg>
