<svg width="56" height="56" viewBox="0 0 56 56" fill="none" xmlns="http://www.w3.org/2000/svg">
<path d="M28 0C12.5562 0 0 12.5557 0 28C0 43.4432 12.5562 56 28 56C43.4432 56 56 43.4432 56 28C56 12.5557 43.4432 0 28 0Z" fill="#4267B2"/>
<path d="M30.681 42.721V29.6193H35.0793L35.7373 24.514H30.681V21.2543C30.681 19.7762 31.0917 18.7682 33.2115 18.7682L35.9158 18.767V14.2007C35.448 14.1388 33.8427 14 31.976 14C28.0782 14 25.4088 16.3788 25.4088 20.7492V24.514H21V29.6205H25.4088V42.721H30.681Z" fill="white"/>
</svg>
